<?xml version="1.0" standalone="no"?>
<!DOCTYPE svg PUBLIC "-//W3C//DTD SVG 20010904//EN"
 "http://www.w3.org/TR/2001/REC-SVG-20010904/DTD/svg10.dtd">
<svg version="1.0" xmlns="http://www.w3.org/2000/svg"
 width="1000.000000pt" height="1001.000000pt" viewBox="0 0 1000.000000 1001.000000"
 preserveAspectRatio="xMidYMid meet">
<metadata>
Created by potrace 1.15, written by Peter Selinger 2001-2017
</metadata>
<g transform="translate(0.000000,1001.000000) scale(0.100000,-0.100000)"
fill="#000000" stroke="none">
<path d="M5030 9975 c-43 -20 -92 -35 -115 -35 -22 -1 -67 -6 -100 -13 l-60
-13 -5 -54 c-10 -101 -42 -127 -123 -103 -56 16 -75 12 -132 -31 -44 -34 -65
-43 -160 -71 -182 -52 -206 -186 -61 -344 31 -33 56 -69 57 -78 0 -10 2 -48 3
-84 2 -47 9 -77 24 -100 75 -121 92 -157 92 -202 0 -61 -8 -77 -36 -77 -18 0
-31 12 -52 46 -51 88 -91 106 -137 60 -22 -22 -23 -29 -21 -129 4 -111 18
-149 61 -163 11 -3 48 -17 83 -30 34 -14 79 -26 100 -28 20 -2 42 -4 49 -5 22
-2 73 -53 73 -73 0 -36 39 -86 75 -98 53 -17 93 -65 100 -119 4 -25 13 -66 22
-89 9 -27 13 -60 10 -85 -7 -49 15 -97 42 -97 25 0 61 -58 61 -96 -1 -66 -50
-87 -163 -69 -47 7 -47 7 -53 -24 -4 -17 -13 -31 -20 -31 -8 0 -23 -9 -34 -20
-16 -16 -28 -19 -60 -14 -54 9 -89 -2 -100 -31 -7 -19 -17 -25 -39 -25 -18 0
-41 -10 -57 -25 -15 -14 -38 -25 -50 -25 -33 0 -32 -33 1 -58 22 -17 24 -24
15 -47 -9 -23 -14 -26 -40 -20 -41 9 -64 -9 -47 -36 9 -15 8 -22 -5 -35 -14
-15 -17 -12 -31 28 -9 23 -18 52 -19 63 -2 11 -5 22 -8 25 -3 3 -16 18 -29 33
l-25 27 29 30 c31 32 54 37 86 18 17 -11 22 -10 33 5 7 9 11 29 8 43 -4 21 -9
24 -26 19 -43 -14 -60 -10 -75 18 -11 19 -13 30 -5 35 6 4 14 21 17 38 5 24 1
36 -13 49 -11 10 -20 24 -20 31 0 19 -36 27 -59 12 -15 -9 -28 -10 -48 -3 -42
16 -67 7 -88 -28 -29 -48 -85 -98 -98 -87 -49 38 -80 69 -69 70 6 0 12 6 12
14 0 7 6 19 14 25 7 6 16 29 20 52 5 29 12 42 30 49 13 5 25 12 27 17 2 4 21
21 42 36 21 16 37 37 37 48 0 27 33 90 60 114 12 11 34 40 48 65 15 25 42 60
61 78 31 30 33 34 18 50 -8 9 -18 29 -22 44 -4 15 -18 34 -32 43 -14 9 -36 42
-49 73 -41 94 -47 103 -85 122 -20 11 -45 34 -56 52 -22 37 -18 53 29 123 15
22 30 53 34 68 3 16 27 49 51 75 55 57 65 80 64 154 0 74 -20 111 -78 145 -39
23 -59 27 -113 27 -36 0 -88 -4 -115 -8 -43 -7 -57 -5 -90 13 -49 26 -58 26
-105 0 -60 -34 -73 -23 -104 92 -11 40 -27 67 -58 98 -65 64 -78 69 -211 69
-110 0 -120 -2 -146 -24 -16 -13 -34 -37 -41 -54 -14 -34 -43 -45 -97 -37 -58
10 -99 -24 -159 -132 -17 -31 -54 -91 -82 -134 -57 -88 -69 -129 -52 -181 28
-87 97 -130 210 -131 112 -1 163 -29 144 -80 -6 -14 -15 -16 -50 -11 -62 8
-89 -6 -125 -64 -17 -27 -45 -62 -63 -77 -65 -55 -98 -108 -99 -155 0 -194 8
-208 98 -164 48 24 55 32 83 95 33 74 50 87 99 75 56 -14 85 -35 104 -80 l20
-44 47 27 c26 15 61 36 77 48 58 41 81 48 145 43 56 -4 65 -8 97 -43 33 -36
35 -43 36 -111 3 -99 -17 -127 -94 -134 -39 -4 -64 -13 -91 -34 -21 -15 -38
-32 -38 -36 0 -4 -33 -20 -74 -35 -79 -29 -111 -59 -123 -116 -4 -22 -17 -38
-40 -52 -22 -12 -36 -30 -40 -48 -5 -24 -8 -27 -24 -18 -15 7 -17 6 -13 -5 3
-9 -4 -29 -15 -45 -12 -16 -21 -42 -21 -58 0 -15 -9 -41 -20 -58 -11 -16 -20
-37 -20 -46 0 -11 -12 -19 -34 -23 -22 -4 -36 -13 -39 -26 -8 -30 -29 -23 -65
23 -79 100 -87 117 -88 192 -2 156 -37 255 -91 255 -33 0 -78 27 -94 57 -7 13
-18 23 -24 23 -6 0 -24 13 -40 30 -26 27 -30 28 -45 15 -19 -17 -98 -30 -133
-21 -13 3 -36 23 -50 44 -50 72 -114 89 -187 52 -53 -27 -73 -25 -112 9 -43
37 -71 51 -103 51 -31 0 -128 -43 -220 -98 -37 -23 -84 -45 -104 -48 -116 -20
-208 -131 -255 -305 -45 -167 -30 -264 53 -349 37 -39 56 -50 99 -59 29 -6 64
-11 77 -11 13 0 60 -18 104 -39 94 -45 127 -44 186 8 26 22 44 30 70 29 39 -1
44 -16 20 -58 -8 -14 -14 -39 -15 -56 0 -26 6 -33 38 -47 20 -9 57 -19 81 -23
24 -3 52 -15 62 -25 14 -14 33 -19 69 -19 48 0 50 2 70 39 16 33 26 40 60 46
56 9 86 0 155 -48 55 -40 60 -46 63 -85 3 -38 -2 -48 -40 -92 -37 -42 -49 -49
-80 -50 -26 0 -48 -10 -80 -35 -23 -20 -60 -49 -81 -66 -26 -21 -41 -44 -49
-75 -18 -66 -68 -56 -68 14 0 18 -5 53 -11 78 -8 29 -8 48 -2 57 6 6 15 27 21
44 9 29 8 34 -8 43 -21 11 -28 7 -103 -60 -33 -30 -39 -43 -43 -85 -9 -93 -21
-121 -58 -139 -40 -19 -88 -21 -119 -5 -12 7 -43 31 -68 55 -26 23 -65 48 -88
55 -45 13 -108 62 -143 112 -19 26 -24 50 -28 123 -5 78 -10 97 -33 133 -71
107 -191 108 -292 1 -22 -23 -77 -66 -122 -95 -108 -71 -133 -105 -133 -178 0
-70 -14 -102 -57 -128 -55 -34 -67 -68 -59 -173 10 -133 -10 -176 -82 -176
-21 0 -50 -18 -107 -65 -43 -36 -85 -65 -92 -65 -7 0 -51 -37 -97 -82 -75 -74
-85 -89 -95 -135 -6 -28 -19 -68 -31 -87 -11 -20 -17 -36 -15 -36 3 0 -1 -15
-9 -34 -10 -25 -11 -44 -4 -77 5 -24 18 -89 28 -143 23 -119 62 -202 110 -234
50 -34 137 -28 204 13 107 67 113 69 181 56 56 -10 70 -9 131 10 53 16 83 20
129 15 132 -13 167 -36 185 -122 13 -62 28 -74 94 -74 34 0 52 -6 76 -27 28
-23 32 -31 27 -65 -3 -21 -16 -53 -29 -71 -22 -29 -61 -127 -54 -135 9 -8 64
24 107 62 26 24 63 46 81 50 29 6 36 3 61 -26 15 -18 27 -40 27 -49 0 -9 18
-33 39 -52 36 -32 42 -35 77 -27 21 5 42 6 46 4 14 -9 74 16 95 39 11 12 23
34 27 49 4 20 19 34 48 48 82 39 98 27 101 -79 2 -37 -4 -57 -20 -79 -26 -35
-35 -143 -14 -181 7 -13 15 -40 17 -61 4 -33 1 -41 -24 -59 -20 -14 -33 -35
-41 -68 -7 -26 -16 -62 -21 -79 -6 -17 -10 -38 -10 -47 0 -27 -20 -62 -42 -72
-14 -7 -27 -31 -39 -69 -16 -54 -16 -63 -3 -95 20 -48 11 -78 -31 -98 -29 -14
-38 -14 -67 -2 -18 7 -39 14 -46 15 -21 3 -42 25 -42 43 0 22 -22 81 -40 109
-8 12 -32 27 -53 33 -39 10 -49 18 -105 85 -18 21 -47 55 -63 74 -36 41 -109
142 -109 150 0 3 -46 4 -102 2 -83 -2 -119 2 -186 20 -81 23 -83 24 -145 97
-89 106 -105 116 -186 116 -59 0 -72 -4 -105 -29 -55 -42 -151 -195 -182 -291
-20 -62 -28 -113 -34 -225 -10 -167 -4 -203 46 -271 19 -26 34 -51 34 -56 0
-5 12 -20 26 -34 23 -22 34 -24 118 -24 101 0 126 -10 126 -51 0 -16 -13 -31
-42 -51 -67 -45 -80 -77 -89 -217 -5 -66 -11 -145 -15 -174 -6 -48 -4 -57 26
-105 24 -38 34 -68 38 -112 5 -67 32 -129 62 -145 33 -17 47 -60 54 -160 16
-218 24 -296 31 -312 4 -9 27 -33 51 -53 35 -29 47 -48 60 -92 18 -63 68 -125
125 -154 21 -10 67 -39 102 -64 89 -62 149 -87 209 -87 72 1 107 25 148 105
21 41 41 66 49 65 8 -2 25 -23 37 -46 13 -24 39 -61 59 -83 43 -48 44 -75 5
-145 -39 -68 -47 -131 -27 -225 9 -41 19 -91 22 -112 11 -76 54 -127 169 -195
52 -32 79 -41 168 -56 20 -4 58 -24 86 -46 58 -47 81 -56 168 -70 82 -13 121
-2 163 46 39 44 65 131 57 192 -4 26 -9 82 -12 124 -6 75 -5 78 22 106 21 20
53 35 113 51 l85 23 43 -47 c43 -45 45 -46 91 -40 40 5 52 2 80 -19 45 -33 61
-56 61 -86 0 -26 -21 -62 -36 -60 -4 1 -14 -20 -22 -47 -29 -105 -39 -111
-125 -72 -37 16 -58 19 -101 14 -88 -11 -129 -67 -128 -175 0 -76 15 -109 73
-167 43 -43 79 -92 106 -144 17 -33 66 -59 111 -59 44 0 100 -19 107 -35 3 -8
-12 -49 -34 -91 -79 -153 -76 -183 29 -302 38 -43 76 -93 86 -112 45 -87 83
-117 158 -126 22 -3 66 -21 97 -40 51 -31 62 -34 135 -34 73 0 310 35 333 49
13 8 41 176 45 268 2 54 8 79 23 100 28 37 99 76 126 67 11 -3 56 -40 99 -81
56 -54 79 -83 79 -100 0 -16 -20 -44 -60 -84 -68 -69 -86 -113 -71 -179 8 -37
20 -55 66 -105 6 -6 26 -22 45 -35 19 -13 64 -48 99 -78 35 -30 88 -66 118
-80 47 -23 57 -25 85 -14 49 17 129 17 163 -2 37 -20 41 -20 90 4 22 11 57 19
78 20 42 0 75 14 94 39 25 33 68 186 67 241 0 30 -1 123 -2 205 -1 229 -2 243
-17 308 -17 72 -8 97 35 97 20 0 38 -11 61 -35 46 -48 88 -47 104 5 4 13 23
47 41 73 19 27 34 55 34 63 0 18 16 18 23 0 3 -7 27 -25 52 -40 54 -30 120
-34 164 -12 27 14 27 14 40 -30 17 -57 4 -90 -47 -122 -20 -13 -48 -33 -62
-45 -35 -31 -99 -171 -110 -238 -11 -74 -29 -115 -74 -168 -20 -24 -42 -53
-47 -63 -18 -33 -15 -102 4 -132 23 -34 89 -65 139 -66 31 0 48 -9 94 -51 52
-47 59 -51 98 -46 22 2 55 10 72 17 27 12 36 10 88 -13 84 -39 123 -36 181 12
29 24 73 47 116 60 129 41 203 135 178 225 -13 46 -82 123 -148 165 -86 56
-104 100 -79 194 17 67 6 94 -45 107 -23 6 -53 17 -67 24 -32 17 -62 76 -62
121 0 29 -4 34 -26 37 -39 5 -37 23 5 34 31 7 43 18 66 59 22 40 27 58 22 93
-6 56 15 109 46 114 20 3 25 13 37 73 23 116 26 109 -47 106 -71 -3 -141 -34
-141 -62 0 -14 -5 -14 -36 -5 -29 9 -35 15 -31 34 2 12 -2 39 -9 60 -7 20 -13
58 -14 84 0 45 -2 49 -37 66 l-38 18 3 68 c3 59 0 71 -19 92 -17 18 -20 30
-15 58 10 54 12 51 -27 55 -7 0 -21 16 -32 34 -22 39 -33 47 -63 47 -13 0 -37
9 -53 20 -15 12 -62 28 -104 37 -62 14 -79 14 -99 4 -30 -16 -62 -7 -82 25
-10 14 -26 24 -39 24 -13 0 -33 8 -46 18 -21 18 -22 21 -10 65 10 34 10 57 2
97 -16 74 -15 83 10 75 12 -4 32 -1 45 5 20 11 27 10 57 -13 26 -19 37 -23 46
-14 8 8 18 6 38 -10 16 -11 29 -25 29 -32 1 -6 2 -18 3 -26 1 -19 21 -20 21
-1 0 8 11 27 24 43 13 16 27 47 31 68 11 63 15 75 29 75 7 0 17 -10 23 -22 6
-14 19 -23 34 -23 18 0 25 -6 27 -24 7 -49 -10 -131 -34 -166 -13 -20 -24 -38
-24 -40 0 -9 59 -35 78 -35 10 0 27 9 36 19 10 10 32 22 50 25 20 4 37 15 42
27 l9 20 22 -21 c15 -14 36 -20 66 -20 43 0 45 1 52 36 17 92 52 111 47 26 -3
-45 0 -53 22 -67 14 -10 26 -22 26 -27 0 -5 6 -16 14 -24 18 -18 10 -50 -20
-73 -27 -22 -30 -31 -10 -31 8 0 25 13 38 30 20 26 27 29 61 23 34 -5 37 -8
37 -37 0 -17 -11 -48 -25 -68 -31 -45 -32 -65 -3 -74 16 -5 26 0 41 20 13 18
25 25 37 21 25 -8 50 35 50 85 0 37 2 40 23 35 24 -6 37 10 52 63 5 18 11 21
33 15 15 -3 33 -15 40 -25 11 -15 17 -17 28 -7 12 10 19 8 38 -10 l23 -22 28
41 c16 23 41 48 55 55 15 8 32 21 39 29 18 22 38 20 51 -5 9 -16 8 -24 -4 -38
-10 -11 -14 -26 -10 -37 9 -25 45 -54 68 -54 14 0 17 -5 11 -22 -15 -47 -17
-89 -5 -117 16 -41 -4 -82 -46 -93 -37 -9 -50 -34 -62 -113 -5 -33 -13 -68
-17 -77 -5 -13 2 -23 28 -38 41 -24 55 -70 32 -103 -12 -17 -26 -21 -82 -23
-38 -1 -86 -8 -108 -16 -35 -13 -40 -19 -43 -49 -2 -21 6 -52 20 -79 22 -43
25 -45 78 -52 38 -4 60 -13 71 -27 25 -31 39 -108 29 -166 -5 -27 -9 -60 -9
-72 -1 -28 49 -87 88 -102 37 -16 54 -53 40 -85 -6 -13 -30 -40 -54 -59 -141
-118 -64 -316 123 -317 33 0 67 -10 114 -34 l66 -34 79 15 c49 9 86 22 100 35
19 18 26 19 57 8 19 -6 51 -22 71 -35 62 -43 89 -53 125 -47 46 7 75 6 129 -3
44 -8 45 -8 87 41 l43 49 66 -2 c63 -3 68 -1 95 28 15 17 36 48 47 68 54 108
225 344 331 459 60 65 85 124 79 190 -5 75 -44 113 -151 148 -45 15 -102 38
-129 51 -43 21 -51 32 -90 111 -38 79 -45 87 -73 90 -45 4 -57 -15 -44 -73 19
-86 -8 -138 -87 -166 -44 -15 -92 9 -118 58 -14 27 -28 39 -47 41 -29 3 -96
-27 -117 -52 -26 -31 -104 -57 -187 -63 l-81 -6 -47 58 c-26 32 -54 72 -63 88
-14 28 -14 33 0 57 18 31 11 46 -23 52 -19 3 -15 6 20 12 36 6 49 15 68 43 12
19 22 41 22 49 0 16 65 20 75 4 9 -15 51 -12 65 5 7 8 25 15 39 15 15 0 42 11
59 24 20 14 53 26 87 30 116 13 137 30 167 135 l12 44 -62 58 c-50 47 -70 59
-106 64 -25 4 -44 10 -43 14 3 11 -75 81 -84 75 -5 -3 -9 4 -9 16 0 72 -53
190 -86 190 -23 0 -64 53 -69 90 -8 50 -35 98 -66 121 -15 11 -30 33 -34 50
-5 20 -16 34 -33 40 -14 5 -32 19 -39 29 -11 15 -26 20 -64 20 -27 0 -58 6
-69 12 -16 10 -24 10 -40 0 -40 -25 -80 -8 -80 34 0 15 -8 24 -24 28 -13 3
-27 16 -31 28 -7 22 -7 22 -12 3 -8 -39 -26 -64 -80 -111 -54 -46 -56 -47 -89
-35 -19 7 -55 14 -81 16 -57 3 -69 18 -78 94 -6 53 -4 64 25 120 36 68 39 70
147 74 54 1 69 5 61 14 -5 7 -7 27 -3 45 6 27 4 35 -20 54 -31 24 -26 49 8 40
21 -5 47 9 47 26 0 5 -13 14 -30 19 -31 11 -38 23 -20 34 5 3 10 17 10 30 0
19 -6 24 -32 27 -37 4 -48 23 -19 33 12 3 21 14 21 23 0 9 7 30 15 46 19 36
19 46 -2 61 -28 21 -22 95 8 95 5 0 9 -10 9 -22 0 -13 14 -38 31 -56 29 -32
49 -35 49 -6 0 21 7 18 38 -16 25 -28 30 -30 59 -20 19 7 33 20 37 34 3 13 17
31 31 40 24 16 26 16 34 -6 10 -27 6 -38 -15 -38 -9 0 -14 -11 -14 -30 0 -23
-4 -30 -20 -30 -11 0 -20 -7 -20 -15 0 -9 -8 -28 -17 -42 -10 -15 -23 -43 -28
-62 -10 -34 -44 -53 -37 -22 2 8 6 27 9 43 l5 28 -29 -15 c-24 -12 -31 -23
-36 -56 -8 -62 -1 -72 44 -65 37 6 38 5 38 -26 2 -90 8 -113 30 -116 26 -4 27
15 4 57 -14 24 -15 33 -5 43 10 10 18 6 40 -19 36 -39 69 -50 85 -29 7 9 23
18 37 21 14 2 31 14 39 25 9 13 25 20 45 20 17 0 42 7 54 16 13 9 26 14 29 10
12 -12 -8 -53 -32 -66 -26 -14 -30 -40 -8 -47 6 -2 20 5 31 17 17 19 21 19 48
6 54 -28 109 -1 100 50 -6 31 -6 32 36 36 24 3 47 1 53 -3 20 -19 66 -9 93 19
29 31 81 57 91 46 3 -4 1 -9 -6 -11 -20 -7 -2 -33 23 -33 15 0 41 16 66 40 43
41 84 52 118 30 17 -11 10 -14 -59 -27 -25 -5 -46 -14 -49 -21 -3 -9 13 -11
62 -9 71 4 72 5 92 39 32 55 35 70 19 88 -21 23 -19 37 6 43 14 4 20 11 16 21
-4 10 -1 13 8 10 23 -9 26 -34 10 -81 -15 -43 -12 -93 6 -93 5 0 9 -16 9 -36
0 -30 -3 -35 -17 -29 -33 12 -38 10 -41 -20 -3 -19 2 -33 14 -42 28 -21 43
-15 58 22 19 44 56 63 96 48 18 -7 45 -8 72 -3 61 12 75 19 93 46 8 13 22 24
30 24 8 0 50 -30 93 -66 72 -61 79 -65 117 -60 59 7 78 -11 70 -67 -5 -32 -2
-53 9 -75 9 -17 16 -44 16 -60 0 -33 -52 -120 -77 -129 -10 -4 -38 -19 -62
-35 -25 -15 -53 -28 -63 -28 -26 0 -81 -32 -117 -68 -29 -29 -31 -34 -25 -84
7 -61 -7 -124 -37 -162 -26 -33 -88 -37 -119 -6 -22 22 -26 40 -10 40 6 0 10
5 10 11 0 6 12 38 27 71 29 64 24 95 -13 91 -35 -5 -61 6 -72 31 -6 13 -25 29
-42 35 -31 10 -32 10 -25 -12 4 -12 9 -51 11 -87 7 -90 12 -110 30 -110 8 0
22 -16 30 -37 15 -34 14 -38 -6 -65 -12 -16 -16 -28 -9 -28 9 0 10 -19 5 -67
-9 -94 -23 -140 -57 -196 l-29 -47 49 0 50 0 32 57 c40 70 153 184 200 203 19
7 46 24 60 37 19 18 36 24 59 21 44 -4 69 -40 80 -115 11 -79 24 -99 87 -129
29 -13 59 -35 67 -47 27 -40 49 -166 42 -236 -8 -85 8 -145 51 -187 37 -38 70
-43 145 -23 41 11 47 10 108 -24 61 -34 68 -35 107 -25 30 7 60 7 102 0 86
-15 169 12 273 89 25 18 65 48 89 64 57 41 80 95 78 182 -1 80 5 111 38 176
29 59 40 159 23 211 -21 66 -98 136 -147 136 -55 0 -348 183 -422 263 -14 15
-31 27 -38 27 -8 0 -13 12 -13 29 0 23 -6 31 -30 40 -30 10 -41 31 -17 31 35
0 87 23 102 46 9 14 19 44 23 66 7 40 11 43 87 83 76 39 80 43 83 77 2 26 10
41 28 53 14 9 23 19 21 22 -3 2 1 19 8 38 13 29 12 111 -1 124 -11 11 -102 30
-144 31 -54 0 -66 7 -75 40 -12 47 -71 100 -112 100 -12 0 -25 13 -35 33 -9
18 -27 46 -41 62 -24 29 -27 30 -105 28 -45 -1 -84 2 -87 7 -4 6 -21 10 -40
10 -19 0 -44 4 -57 9 -13 5 -34 12 -48 15 -52 12 -56 22 -22 56 29 28 32 37
32 92 0 58 -1 62 -42 99 -24 21 -51 38 -60 39 -9 0 -27 15 -39 33 -12 17 -23
33 -25 35 -1 2 -14 -8 -29 -23 -26 -23 -30 -24 -45 -10 -10 9 -33 18 -52 21
-28 5 -36 12 -44 37 -12 41 -29 44 -44 7 -10 -25 -18 -30 -46 -30 -34 0 -34
-1 -34 -44 0 -25 -3 -47 -7 -49 -5 -2 -23 0 -40 5 -23 6 -33 15 -33 27 0 53
-29 67 -55 27 -9 -13 -28 -27 -43 -31 -37 -9 -52 -24 -52 -51 0 -28 -14 -38
-38 -25 -10 5 -24 6 -32 1 -11 -7 -9 -18 13 -60 15 -29 27 -57 27 -64 0 -7 7
-27 16 -45 12 -24 13 -36 5 -44 -16 -16 -51 20 -51 53 0 39 -20 52 -69 44 -37
-6 -41 -9 -41 -35 0 -31 25 -40 47 -18 17 17 35 1 27 -24 -12 -40 -57 -132
-68 -139 -21 -15 -23 -7 -18 62 5 71 -3 85 -28 55 -7 -8 -15 -15 -19 -15 -8 0
-28 66 -37 119 -7 45 -33 71 -72 71 -15 0 -22 5 -19 13 2 6 11 11 20 9 8 -1
18 2 22 8 3 5 -1 10 -10 10 -8 0 -18 8 -21 18 -11 32 -39 82 -46 82 -5 0 -8
21 -8 46 0 37 -5 51 -29 75 -34 33 -43 36 -39 11 2 -10 -3 -17 -12 -17 -8 0
-16 10 -18 22 -3 18 -10 23 -33 23 -26 0 -29 -3 -29 -30 0 -25 -4 -30 -25 -30
-14 0 -28 -7 -31 -15 -4 -10 -14 -13 -29 -9 -16 4 -26 0 -33 -12 -11 -20 -32
-10 -32 16 0 21 47 36 80 25 18 -6 24 0 37 34 9 22 24 43 35 46 20 7 51 59 41
69 -17 17 -41 2 -59 -36 -13 -30 -26 -44 -42 -46 -23 -4 -23 -3 -7 22 10 14
13 26 7 26 -6 0 -16 2 -24 5 -7 3 -22 -1 -33 -9 -16 -12 -17 -16 -6 -30 11
-14 9 -20 -18 -45 -17 -16 -31 -34 -31 -39 0 -14 -33 -24 -54 -16 -23 9 -20
34 4 34 24 0 38 26 22 42 -8 8 -2 19 20 40 35 32 27 49 -18 40 -40 -7 -27 12
21 31 31 13 45 25 45 38 0 12 -7 19 -18 19 -15 0 -18 10 -20 60 -2 50 0 60 14
60 13 0 16 -7 11 -35 -3 -19 -1 -37 4 -40 5 -4 9 4 9 17 0 14 6 32 13 42 11
15 15 16 25 3 10 -11 9 -17 -3 -27 -8 -7 -15 -26 -15 -42 0 -39 27 -49 52 -19
21 27 24 67 6 74 -7 3 -3 6 8 6 12 1 33 10 48 22 l26 20 0 -30 c0 -28 2 -30
24 -21 20 7 26 6 31 -10 3 -10 12 -21 20 -24 8 -3 15 -15 15 -26 0 -24 27 -27
56 -5 10 8 26 15 35 15 18 0 75 68 66 77 -4 3 -20 0 -37 -5 -20 -7 -39 -8 -55
-2 -29 11 -51 5 -59 -16 -4 -12 -10 -12 -26 -4 -11 6 -20 15 -20 19 0 14 79
91 94 91 7 0 19 7 26 15 7 8 21 15 31 15 11 0 19 7 19 15 0 8 -9 15 -19 15
-10 0 -21 -7 -25 -15 -3 -9 -18 -15 -36 -15 -16 0 -30 -4 -30 -10 0 -5 -16
-16 -35 -24 -19 -8 -38 -22 -41 -31 -10 -26 -32 -18 -26 10 3 19 0 25 -12 25
-26 0 -76 -29 -76 -44 0 -17 -44 -26 -95 -20 -38 5 -41 4 -57 -34 -22 -48 -23
-98 -3 -106 8 -3 12 -12 9 -21 -8 -21 -21 -19 -27 5 -3 14 -14 20 -31 20 -15
0 -26 6 -26 13 0 28 -22 37 -51 20 -16 -9 -31 -14 -34 -11 -8 7 16 58 27 58 4
0 8 10 8 23 -1 21 -1 21 -15 3 -13 -18 -15 -18 -21 -2 -4 10 -2 22 5 29 19 19
13 39 -9 32 -24 -8 -26 2 -4 26 14 16 13 21 -10 58 -17 26 -26 55 -26 80 0 34
6 43 45 75 49 41 56 61 25 71 -19 6 -17 9 16 49 36 43 43 46 129 58 16 3 20
-5 26 -45 5 -33 3 -56 -7 -77 -12 -23 -13 -34 -4 -50 6 -12 17 -19 23 -17 21
7 47 -45 47 -94 0 -25 3 -49 7 -52 9 -10 33 13 33 32 0 9 13 23 29 32 32 19
51 73 32 92 -6 6 -11 15 -11 19 0 10 50 -1 66 -14 10 -7 44 14 44 27 0 10 -56
55 -67 55 -20 0 -16 70 6 111 19 36 19 37 0 68 -33 55 -19 70 25 26 14 -14 37
-25 52 -25 19 0 25 -4 20 -15 -7 -20 14 -55 34 -55 9 0 25 7 36 15 28 21 35
18 28 -10 -5 -18 1 -35 20 -59 14 -19 26 -39 26 -45 0 -6 5 -11 10 -11 6 0 10
7 10 15 0 8 5 15 10 15 6 0 10 -13 10 -30 0 -22 -5 -30 -18 -30 -20 0 -42 -18
-42 -35 0 -13 59 -37 72 -29 4 3 5 16 2 30 -4 17 -2 24 9 24 8 0 17 -7 21 -15
3 -8 17 -15 31 -15 15 0 25 -6 25 -15 0 -8 14 -27 30 -42 36 -32 37 -41 5 -49
-13 -3 -29 -12 -36 -20 -6 -8 -27 -14 -45 -14 -35 0 -58 -17 -90 -65 -17 -26
-17 -28 6 -45 15 -11 21 -23 17 -34 -7 -17 8 -21 37 -10 11 4 16 19 16 45 0
33 3 39 22 39 12 0 41 12 65 26 l45 26 22 -21 c12 -12 28 -21 34 -21 20 0 13
48 -9 64 -20 13 -20 16 -6 30 22 23 31 20 66 -19 37 -42 37 -46 11 -70 -13
-12 -20 -29 -18 -44 3 -23 7 -26 38 -23 19 2 39 10 43 18 13 22 35 16 58 -16
12 -16 35 -34 51 -39 25 -9 28 -15 28 -50 0 -23 5 -41 10 -41 7 0 8 -19 4 -52
-5 -40 -13 -58 -32 -74 -24 -19 -25 -24 -14 -48 7 -16 10 -43 6 -67 -4 -21 -2
-39 3 -39 5 0 26 20 48 44 39 44 40 44 66 29 22 -13 31 -14 43 -4 11 9 20 10
35 2 11 -6 27 -8 35 -5 9 4 37 1 63 -5 57 -15 67 -4 45 50 -18 47 -4 74 34 65
14 -4 38 2 59 14 20 11 34 16 30 10 -3 -5 0 -10 8 -10 25 0 48 -36 56 -89 8
-53 18 -68 84 -135 l39 -39 32 17 c17 9 50 27 73 40 24 14 49 26 55 28 12 4
20 64 20 158 0 25 5 49 12 53 10 8 -104 4 -224 -8 -55 -6 -55 -6 -27 10 17 10
58 18 101 19 41 2 91 9 112 16 59 18 59 18 65 16 4 0 17 8 29 19 l23 20 -17
-32 c-9 -18 -23 -36 -32 -41 -23 -13 64 -24 88 -11 39 21 13 99 -33 99 -15 0
-27 14 -43 52 l-23 52 24 35 c23 33 23 36 7 48 -17 12 -16 14 12 25 23 8 33
20 41 48 9 37 5 57 -37 168 -13 34 -7 68 10 57 5 -3 10 -23 10 -44 0 -23 6
-44 16 -52 14 -11 20 -8 45 21 18 23 28 46 27 65 0 17 2 44 6 62 6 24 2 40
-17 70 -53 84 -46 97 58 107 83 8 178 -11 225 -44 17 -12 46 -26 65 -31 44
-12 71 -41 79 -84 10 -53 41 -85 84 -85 20 -1 48 -7 61 -14 20 -11 30 -11 66
3 59 22 97 57 130 119 24 44 33 52 57 52 36 0 72 35 65 63 -3 12 -8 33 -11 46
-3 15 0 31 9 40 27 31 36 71 25 112 -8 29 -7 46 3 72 23 54 57 69 196 83 159
17 159 17 209 53 64 47 75 119 23 157 -13 10 -13 14 -2 28 7 9 19 16 27 16 16
0 34 31 34 57 0 10 -11 35 -25 55 -23 35 -25 43 -19 120 6 82 6 83 -25 122
-17 22 -41 46 -52 54 -40 28 -68 115 -74 230 -10 183 -37 233 -179 325 -50 34
-108 84 -154 134 -55 62 -80 82 -106 87 -54 10 -63 29 -43 86 22 62 22 67 -8
152 -14 39 -25 79 -25 89 0 9 -6 22 -14 28 -8 7 -27 48 -42 92 -24 70 -35 87
-87 136 -43 39 -67 71 -83 111 -13 31 -24 63 -24 70 0 7 -14 37 -31 67 -21 37
-34 77 -39 121 -9 71 -14 77 -88 114 -38 19 -48 32 -76 94 -27 59 -40 76 -69
89 -19 9 -45 17 -56 17 -102 0 -232 192 -276 408 -19 89 -50 151 -84 168 -14
7 -28 20 -33 28 -23 42 -273 127 -331 113 -12 -3 -56 -13 -97 -22 -109 -24
-149 -69 -155 -172 -5 -103 -57 -133 -196 -111 -60 9 -72 8 -140 -15 -120 -42
-147 -43 -194 -11 -102 69 -178 88 -235 59 -36 -19 -83 -105 -75 -138 3 -12 7
-49 9 -83 3 -57 16 -112 38 -160 13 -27 2 -61 -21 -69 -10 -3 -24 -18 -32 -33
-7 -15 -21 -37 -30 -50 -10 -12 -20 -41 -24 -63 -4 -22 -13 -52 -20 -65 l-12
-24 -18 26 c-10 15 -15 37 -12 51 6 34 -11 93 -35 119 -16 18 -25 20 -56 13
-20 -4 -41 -15 -47 -25 -35 -57 -54 -70 -135 -88 -24 -5 -51 -44 -64 -91 -3
-12 -14 -21 -23 -21 -16 0 -18 10 -16 81 1 44 4 97 5 118 3 34 0 41 -24 53
-16 8 -28 10 -28 5 0 -5 -12 -23 -26 -40 -29 -35 -56 -39 -123 -15 -40 14 -45
13 -62 -2 -22 -20 -24 -59 -6 -90 51 -88 56 -101 50 -145 -4 -35 -3 -42 7 -32
10 9 18 8 38 -8 25 -19 25 -19 40 3 21 31 34 39 53 34 9 -2 21 5 27 15 16 25
52 14 52 -17 0 -13 -4 -24 -9 -24 -6 0 -22 -12 -38 -26 -22 -21 -25 -27 -13
-34 8 -6 18 -10 22 -10 4 0 10 -9 13 -21 5 -15 10 -18 18 -10 18 18 27 13 27
-14 0 -34 35 -84 80 -116 20 -15 46 -44 57 -65 11 -22 24 -37 29 -34 5 3 9 29
9 58 0 31 4 52 10 52 6 0 32 -13 58 -29 43 -28 46 -33 44 -69 -2 -55 16 -74
60 -66 31 6 38 3 59 -22 13 -16 23 -37 24 -46 0 -13 11 -18 42 -20 34 -2 44
-7 46 -23 6 -30 42 -65 68 -65 38 0 54 -11 54 -37 0 -22 -3 -24 -37 -20 -41 5
-69 13 -93 28 -8 5 -25 13 -37 19 -13 5 -23 16 -23 25 0 18 -23 19 -53 3 -31
-18 -138 -19 -162 -1 -14 10 -20 25 -20 55 0 55 -23 71 -62 42 -24 -18 -27
-26 -24 -66 1 -25 -2 -49 -8 -53 -18 -11 -12 -54 8 -65 11 -5 40 -10 65 -10
25 0 48 -6 53 -12 4 -7 7 -38 6 -69 -1 -47 2 -56 21 -65 18 -8 20 -16 17 -54
-7 -90 -70 -142 -94 -78 -4 12 0 18 16 20 16 2 23 11 25 31 6 48 -19 65 -96
65 -74 1 -92 -8 -92 -45 0 -14 -4 -21 -10 -18 -5 3 -10 23 -10 45 0 35 -3 39
-39 54 -43 16 -97 78 -86 96 4 7 18 9 32 5 14 -3 31 -1 38 5 18 15 29 -4 16
-28 -11 -20 -4 -62 9 -62 5 0 15 -7 23 -15 12 -11 22 -12 48 -3 87 27 127 64
101 90 -7 7 -19 4 -38 -11 -27 -21 -29 -21 -41 -5 -7 10 -13 25 -13 34 0 36
-118 64 -149 36 -14 -13 -28 -16 -55 -11 -43 9 -52 19 -71 81 -13 42 -13 50 0
64 18 19 19 36 5 45 -18 11 -148 -16 -173 -35 -24 -19 -74 -136 -63 -147 3 -3
14 0 23 8 15 11 15 10 -1 -9 -11 -13 -30 -22 -47 -22 -32 0 -44 -24 -34 -69 8
-39 -13 -51 -37 -22 -17 23 -48 23 -48 1 0 -5 -11 -10 -25 -10 -33 0 -52 -42
-37 -82 12 -33 3 -36 -39 -11 -39 23 -43 40 -19 80 11 19 20 47 20 63 0 37 10
42 45 24 25 -13 30 -13 46 1 19 18 34 79 23 96 -4 7 -15 2 -30 -12 -31 -29
-39 -20 -24 28 26 80 29 85 53 81 20 -4 22 -1 22 46 0 33 -5 55 -15 63 -11 9
-12 16 -4 29 18 30 34 28 47 -5 6 -17 14 -31 18 -31 14 0 29 58 28 108 l-2 54
-43 -7 -44 -6 -22 50 c-12 28 -25 52 -30 52 -11 2 -21 5 -38 12 -8 3 -24 7
-34 9 -31 5 -32 28 -1 28 17 0 25 5 22 13 -2 6 -14 11 -26 10 -14 -2 -21 3
-21 13 0 21 48 10 66 -14 11 -15 15 -14 43 13 17 17 31 36 31 43 0 19 28 14
40 -7 5 -11 10 -38 10 -60 0 -46 11 -58 32 -33 27 31 29 53 8 79 -11 14 -20
31 -20 38 0 12 -25 27 -73 45 -15 5 -32 21 -39 35 -6 14 -18 26 -27 27 -35 3
-76 -5 -94 -17 -16 -11 -26 -11 -55 -1 -35 13 -37 15 -33 52 1 22 7 47 13 57
8 15 6 18 -9 15 -10 -2 -17 -11 -17 -21 2 -18 -11 -23 -21 -7 -7 12 30 50 50
50 28 0 57 79 56 151 0 27 22 55 49 61 8 2 18 8 22 13 4 6 30 10 57 10 57 0
66 13 26 35 -34 19 -41 75 -14 117 l18 27 -62 59 c-68 65 -65 64 -190 51 -62
-6 -67 -8 -61 -27 4 -11 19 -38 35 -60 16 -22 29 -45 29 -52 0 -6 16 -38 36
-71 l35 -59 -31 30 c-17 17 -47 62 -66 102 -26 53 -41 73 -57 75 -29 4 -60 84
-37 98 11 7 12 14 2 34 -14 31 -34 33 -78 5 -19 -12 -39 -17 -46 -13 -7 5 -38
7 -69 6 -64 -3 -96 19 -84 57 12 37 52 49 137 40 68 -6 83 -5 135 16 90 37
112 60 124 130 14 75 5 163 -21 223 -29 66 -21 86 50 122 69 35 100 38 124 11
15 -16 16 -32 11 -113 -6 -79 -4 -103 14 -158 12 -39 21 -92 21 -132 0 -60 3
-69 26 -87 15 -12 34 -21 43 -21 10 0 22 -5 29 -12 6 -6 46 -23 89 -37 94 -32
123 -65 123 -142 0 -26 -4 -51 -10 -54 -5 -3 -10 -19 -10 -36 0 -27 3 -29 38
-29 29 0 45 -7 67 -30 18 -19 39 -30 56 -30 15 0 40 -7 55 -15 41 -21 130 -18
179 5 22 11 49 19 61 20 15 0 29 16 52 60 18 33 32 68 32 78 0 9 11 33 24 53
13 19 25 42 26 50 11 76 -31 127 -138 166 -52 19 -90 41 -119 69 -41 38 -43
44 -43 97 0 47 5 62 33 98 17 23 66 63 107 88 86 54 120 97 120 153 0 37 -9
48 -137 181 -75 78 -146 147 -157 154 -12 7 -38 12 -59 13 -39 0 -83 18 -125
51 -38 29 -77 32 -135 11 -30 -11 -87 -25 -128 -31 -86 -12 -148 -32 -190 -61
-49 -35 -85 -41 -112 -19 -38 29 -70 106 -63 150 7 46 -10 69 -77 104 -70 37
-140 34 -237 -10z m3082 -1752 c24 -28 30 -60 23 -115 -6 -45 -15 -60 -69
-117 -34 -36 -67 -79 -73 -96 -40 -109 -73 -206 -82 -241 -13 -50 -37 -73 -84
-81 -38 -6 -39 -5 -110 76 -15 18 -32 31 -37 29 -15 -5 18 -82 48 -108 16 -14
45 -50 64 -81 20 -31 41 -60 46 -63 6 -3 29 -43 52 -89 44 -86 84 -137 108
-137 8 0 28 -6 45 -14 18 -7 44 -18 58 -24 20 -8 34 -30 60 -92 18 -45 39 -85
46 -87 7 -3 13 -9 13 -14 0 -5 11 -26 24 -47 13 -21 27 -53 31 -72 4 -19 20
-60 36 -90 16 -30 29 -61 29 -68 0 -7 27 -68 60 -135 33 -68 60 -132 60 -143
0 -22 35 -96 80 -169 17 -27 38 -65 47 -83 18 -34 58 -52 120 -52 88 0 119
-118 56 -215 -8 -11 -13 -50 -13 -92 0 -39 -4 -75 -10 -78 -5 -3 -10 -1 -10 4
0 6 -5 11 -11 11 -5 0 -7 -4 -4 -10 10 -17 -15 -11 -46 10 -27 20 -30 20 -60
4 -72 -37 -162 -65 -170 -53 -4 7 -17 9 -29 6 -15 -4 -30 2 -47 19 l-24 24 21
39 c21 36 21 40 6 69 -21 40 -48 54 -98 51 -29 -3 -42 1 -49 14 -15 26 -2 37
45 37 28 0 52 7 67 19 22 18 22 19 5 55 -11 23 -24 36 -36 36 -11 0 -20 -4
-20 -10 0 -5 -7 -10 -15 -10 -13 0 -15 7 -10 34 4 20 2 36 -4 40 -6 4 -18 20
-26 36 -12 23 -12 35 -3 62 12 32 12 33 18 8 3 -14 12 -25 20 -25 12 0 15 15
14 70 0 53 -4 70 -15 70 -8 0 -16 15 -20 35 -3 19 -11 47 -17 63 -6 15 -8 27
-3 27 12 0 28 -22 32 -44 2 -11 9 -21 15 -23 7 -2 9 29 6 104 -4 92 -7 111
-26 132 -33 36 -63 44 -100 25 -17 -8 -51 -17 -75 -19 -24 -2 -45 -6 -48 -9
-3 -2 -7 -24 -10 -47 -6 -42 -42 -88 -70 -89 -27 0 -23 -24 8 -56 18 -18 30
-36 27 -39 -7 -8 -24 11 -68 74 -19 28 -46 54 -60 59 -30 11 -112 -8 -138 -31
-12 -11 -36 -17 -68 -17 -27 0 -73 -1 -103 -2 -50 -3 -55 -5 -62 -31 -4 -16
-13 -35 -19 -42 -28 -34 -51 42 -26 83 11 19 -24 72 -49 72 -16 0 -26 9 -35
30 -11 27 -10 32 15 61 21 25 25 39 21 63 -9 48 39 96 96 96 13 0 30 6 38 13
20 16 22 68 4 88 -16 18 -11 61 10 79 17 13 77 -16 83 -41 6 -21 18 -25 29 -8
4 8 25 9 60 5 53 -6 54 -6 54 20 0 14 -6 38 -14 52 -7 15 -21 53 -30 85 -10
31 -20 57 -24 57 -4 0 -17 3 -29 6 -21 6 -23 3 -23 -30 0 -30 -4 -36 -22 -37
-13 -1 -27 -1 -31 0 -10 2 -122 -60 -175 -95 -44 -30 -50 -30 -64 1 -9 21 -18
25 -52 25 -63 0 -70 -9 -71 -84 0 -78 -19 -104 -84 -113 l-41 -6 0 35 c0 20 7
55 15 78 15 42 14 45 -9 79 -13 20 -27 51 -31 69 -4 18 -13 36 -21 39 -49 19
24 83 95 83 44 0 64 -14 92 -67 14 -26 24 -31 70 -37 45 -5 56 -3 67 11 7 10
30 42 51 72 28 37 38 61 36 80 -2 14 -4 29 -4 34 -1 4 -17 7 -36 7 -27 0 -46
9 -78 38 -23 21 -54 46 -69 55 -16 10 -28 25 -28 35 0 28 -26 57 -52 57 -19 0
-24 6 -26 33 -4 37 -59 82 -103 82 -14 0 -36 9 -48 19 -22 20 -22 20 -4 44 11
16 32 27 58 32 22 3 47 13 57 22 9 8 29 16 43 16 22 0 26 3 21 21 -16 64 63
168 147 193 30 9 50 24 70 53 28 39 55 55 43 25 -4 -12 0 -14 19 -9 15 4 25 2
25 -5 0 -16 51 -59 79 -66 14 -4 33 -12 41 -19 20 -17 77 -36 109 -36 41 0
170 136 216 227 40 78 46 85 90 101 44 15 60 14 77 -5z m-4783 -377 c26 -27
65 -38 97 -26 24 10 46 -9 79 -66 17 -29 17 -33 1 -55 -18 -26 -21 -55 -7 -63
16 -11 40 5 60 40 16 27 27 34 52 34 35 0 69 24 69 48 0 15 28 41 44 42 5 0 1
-9 -10 -21 -15 -16 -16 -23 -6 -37 7 -9 16 -27 21 -38 6 -12 19 -29 31 -37 17
-12 19 -19 11 -38 -5 -13 -12 -32 -15 -43 -5 -16 -9 -16 -23 -5 -10 9 -43 14
-88 14 -69 1 -73 0 -89 -28 -9 -16 -16 -36 -16 -45 0 -12 5 -11 25 8 39 37 39
17 0 -30 -19 -23 -38 -54 -41 -69 -8 -36 -32 -89 -44 -96 -15 -9 -12 4 12 53
l21 45 -24 18 c-36 28 -61 34 -73 17 -6 -8 -17 -13 -23 -11 -7 3 -28 -5 -47
-16 -18 -12 -43 -21 -55 -21 -11 0 -21 -4 -21 -10 0 -5 -12 -20 -27 -34 -18
-16 -26 -34 -25 -54 1 -30 -28 -56 -36 -33 -6 17 -42 13 -42 -5 0 -8 22 -39
48 -67 50 -53 72 -98 72 -148 0 -48 -9 -47 -90 19 -36 28 -51 28 -84 -3 -27
-25 -33 -49 -16 -60 17 -11 11 -24 -15 -31 -13 -3 -41 -26 -61 -50 -33 -41
-40 -44 -76 -42 -32 2 -44 -3 -59 -22 -16 -22 -26 -60 -15 -60 2 0 25 9 49 19
25 11 48 17 51 14 3 -4 6 -27 6 -53 0 -44 2 -47 43 -67 37 -18 39 -22 22 -29
-11 -4 -28 -14 -37 -22 -9 -8 -35 -14 -58 -14 -39 1 -40 0 -34 -26 4 -15 15
-36 25 -48 11 -11 19 -23 19 -26 0 -13 -40 -15 -51 -2 -12 14 -48 10 -59 -7
-3 -4 -17 -10 -31 -14 -18 -4 -30 -1 -43 14 -24 26 -42 27 -58 1 -7 -11 -17
-20 -21 -20 -17 0 -98 65 -86 69 6 2 23 13 36 24 20 18 23 29 21 75 -2 47 1
57 21 74 14 11 31 16 40 12 9 -4 26 -9 38 -11 21 -5 22 -2 17 23 -3 16 -1 48
4 70 10 47 -9 94 -39 94 -40 0 -63 88 -38 143 9 20 6 33 -16 75 -25 49 -26 55
-15 101 15 62 30 75 72 66 57 -12 90 -9 100 9 8 14 19 16 65 10 43 -5 54 -4
52 7 -1 8 1 22 5 32 12 26 1 45 -36 61 -54 23 -74 42 -61 57 6 8 13 28 15 44
3 27 7 30 40 33 23 2 47 -4 64 -14 23 -16 28 -16 38 -3 6 8 25 19 41 24 20 7
31 18 33 33 2 13 11 26 20 30 14 5 13 7 -7 12 -31 7 -50 35 -34 51 8 8 19 6
41 -5 17 -9 39 -16 50 -16 30 0 62 37 62 73 0 37 7 49 35 65 32 18 60 14 84
-12z m5006 -536 c4 -6 -1 -33 -10 -60 -9 -27 -14 -54 -10 -60 15 -24 -6 -87
-37 -110 -30 -22 -31 -22 -45 -4 -35 49 -89 104 -100 104 -17 0 -16 24 1 58
25 49 54 67 120 73 33 3 64 7 68 7 4 1 10 -3 13 -8z m250 -135 c38 -37 34 -88
-9 -131 -42 -42 -71 -44 -90 -6 -24 48 -28 88 -12 120 25 49 73 56 111 17z
m-3565 -1 c0 -9 -18 -34 -40 -57 -22 -22 -38 -43 -34 -46 3 -3 24 -6 47 -6 50
0 66 -19 20 -23 -63 -6 -31 -50 50 -70 33 -8 54 -9 67 -2 10 5 21 10 24 10 12
0 5 -28 -9 -40 -27 -22 -16 -39 45 -67 33 -15 60 -32 60 -38 0 -6 8 -27 18
-46 13 -26 17 -49 13 -83 -7 -53 -28 -64 -23 -12 2 19 -1 37 -7 41 -7 3 -11
-2 -11 -15 0 -11 -9 -28 -20 -37 -11 -10 -20 -27 -20 -39 0 -12 -7 -25 -16
-28 -23 -9 -73 -7 -92 3 -9 4 -29 11 -44 15 -25 6 -28 4 -28 -19 0 -15 4 -24
10 -20 6 4 10 -7 10 -24 0 -24 -4 -31 -19 -31 -26 0 -34 -14 -26 -50 5 -23 12
-29 37 -32 17 -2 33 -7 35 -13 4 -12 -43 -35 -72 -35 -11 0 -30 -7 -43 -15
-16 -12 -27 -13 -41 -5 -28 14 -31 13 -31 -15 0 -14 8 -29 21 -36 15 -7 18
-14 11 -21 -13 -13 35 -78 58 -78 8 0 24 -11 36 -25 25 -30 54 -24 54 10 0 23
-32 60 -43 49 -3 -4 -20 7 -37 24 -29 30 -30 31 -11 42 11 5 26 10 34 10 8 0
20 7 27 15 7 8 16 12 22 9 5 -3 4 -11 -3 -20 -18 -21 -2 -62 31 -79 17 -9 30
-20 30 -25 0 -6 7 -10 15 -10 8 0 23 -4 33 -9 9 -5 25 -12 34 -15 11 -3 16
-15 16 -35 -1 -33 17 -61 38 -61 17 0 54 57 54 84 0 13 -5 17 -20 13 -11 -3
-23 1 -28 7 -4 7 -14 15 -22 18 -11 4 -7 9 13 17 16 6 27 18 27 30 0 10 9 21
20 24 17 4 20 10 14 32 -4 18 -2 30 7 35 17 11 29 3 29 -19 0 -10 9 -26 21
-37 17 -15 23 -16 41 -5 23 14 38 7 20 -11 -7 -7 -12 -25 -12 -40 0 -27 -2
-29 -36 -26 -23 2 -39 -2 -41 -9 -3 -7 2 -13 10 -13 8 0 17 -9 20 -20 4 -17
10 -20 32 -14 24 6 27 4 20 -15 -6 -21 8 -30 20 -11 3 6 15 10 26 10 14 0 19
7 19 25 0 14 -4 25 -10 25 -5 0 -10 -4 -10 -10 0 -5 -6 -10 -12 -10 -20 1 32
40 52 40 22 0 34 -43 20 -70 -13 -23 -6 -40 16 -40 10 0 1 -13 -21 -35 -36
-33 -39 -55 -9 -55 8 0 17 7 20 15 5 12 9 13 20 4 11 -9 12 -15 3 -26 -15 -17
-12 -19 32 -27 26 -5 40 -2 49 9 10 12 8 16 -15 25 -14 5 -24 14 -21 19 9 14
-4 41 -20 41 -11 0 -13 11 -8 54 8 71 -2 130 -22 122 -26 -10 -14 20 17 43 17
13 35 36 41 52 5 16 14 26 19 23 14 -9 10 -46 -11 -89 -24 -49 -25 -69 -4 -86
14 -11 20 -10 40 14 26 31 44 28 44 -5 0 -12 5 -37 12 -55 10 -28 10 -36 -4
-49 -23 -23 -40 -10 -28 22 6 14 10 32 10 40 0 19 -39 18 -61 -2 -16 -14 -16
-19 -2 -59 8 -26 23 -47 34 -50 10 -4 19 -12 19 -18 0 -7 3 -21 6 -32 4 -16
-3 -26 -34 -43 -22 -12 -52 -22 -67 -22 -40 0 -64 -16 -58 -40 4 -15 0 -20
-16 -20 -34 0 -38 30 -8 54 32 26 36 56 7 56 -12 0 -20 7 -20 16 0 21 -40 15
-54 -9 -9 -15 -6 -21 14 -37 l24 -18 -24 -20 c-25 -20 -25 -20 -28 -1 -2 11
-10 23 -19 26 -8 3 -19 17 -24 31 -8 20 -14 23 -38 19 -21 -4 -31 -2 -35 9 -5
13 -9 13 -30 -1 -29 -19 -42 -6 -26 26 16 28 5 36 -20 14 -22 -20 -26 -14 -10
16 8 14 7 26 -4 47 -9 15 -20 39 -26 54 -17 49 -90 46 -90 -4 0 -12 11 -23 30
-30 24 -8 29 -14 24 -30 -3 -12 1 -27 12 -39 17 -19 16 -21 -14 -52 -39 -40
-41 -64 -6 -77 22 -9 24 -13 14 -26 -9 -10 -10 -18 -3 -25 8 -8 14 -5 22 9 6
11 28 26 48 32 21 7 48 21 60 32 22 20 22 20 52 -1 16 -12 33 -30 36 -40 3
-11 29 -34 57 -52 44 -28 48 -34 34 -44 -22 -16 -20 -30 6 -47 21 -14 21 -16
5 -38 -16 -23 -17 -23 -18 -5 -1 11 -1 23 0 28 2 14 -16 7 -43 -18 -31 -29
-33 -41 -5 -55 17 -9 23 -8 35 7 14 17 15 16 11 -12 -3 -19 1 -37 14 -54 22
-27 25 -55 7 -49 -7 3 -19 24 -27 47 -9 30 -18 41 -28 37 -8 -3 -24 -1 -35 5
-25 14 -52 -6 -28 -21 8 -5 19 -6 25 -3 5 4 1 -4 -10 -16 -17 -20 -21 -21 -31
-7 -16 23 -22 21 -65 -24 -22 -22 -46 -40 -54 -40 -8 0 -38 -17 -67 -37 -29
-21 -49 -32 -45 -25 6 8 1 12 -12 12 -12 0 -21 4 -21 9 0 16 -60 -6 -84 -31
-12 -13 -31 -28 -42 -34 -19 -11 -19 -12 1 -34 l20 -22 -23 -18 c-22 -19 -23
-19 -42 0 -25 25 -26 50 -1 57 25 6 65 111 50 129 -7 9 -18 10 -35 4 -13 -5
-24 -7 -24 -3 0 14 34 83 41 83 4 0 2 11 -4 24 -13 26 -44 37 -117 40 -25 1
-57 10 -72 20 -25 16 -29 16 -50 2 -24 -17 -48 -21 -48 -8 0 5 18 15 40 22 44
15 50 32 19 53 -19 14 -18 15 21 19 41 4 42 3 36 -24 -5 -28 14 -58 37 -58 17
0 57 29 57 40 0 5 -18 27 -40 49 -22 22 -40 44 -40 50 0 6 -9 11 -20 11 -11 0
-20 5 -20 10 0 6 12 10 26 10 26 0 53 -24 79 -71 12 -23 24 -28 90 -38 42 -6
80 -9 85 -6 4 2 10 18 13 35 7 32 24 40 34 14 8 -22 -28 -84 -55 -95 -36 -14
-38 -37 -7 -69 33 -34 27 -49 -11 -31 -40 18 -51 1 -34 -50 8 -23 22 -51 31
-62 16 -20 16 -20 28 14 l13 34 15 -22 c8 -13 19 -23 24 -23 16 0 10 38 -7 44
-8 3 -12 10 -9 16 11 18 35 10 45 -15 14 -38 37 -41 65 -11 19 21 29 25 43 17
24 -13 60 12 44 32 -7 8 -9 17 -5 20 3 4 2 7 -4 7 -5 0 -20 -11 -33 -25 -18
-19 -26 -22 -37 -14 -7 6 -22 9 -33 6 -16 -4 -23 1 -30 19 -5 13 -21 29 -35
34 -21 8 -24 14 -18 42 3 18 10 36 16 39 5 4 6 16 3 27 -6 18 -2 21 26 24 25
2 34 8 36 26 3 16 -2 22 -16 22 -20 0 -42 53 -42 103 0 34 -10 58 -21 51 -15
-9 -10 12 5 25 8 7 23 14 35 16 32 6 41 14 41 36 0 10 -1 19 -2 19 -2 0 -25
-7 -51 -15 -44 -13 -51 -13 -64 1 -12 11 -13 18 -4 27 11 11 16 57 5 57 -4 0
-24 -19 -45 -42 -35 -39 -38 -41 -39 -19 0 17 -4 22 -16 17 -12 -5 -15 -2 -9
11 15 37 17 53 6 53 -13 0 -48 -19 -74 -39 -9 -8 -20 -11 -25 -7 -4 4 1 13 10
20 19 14 40 61 32 69 -9 9 -68 -15 -81 -32 -6 -9 -15 -13 -19 -9 -4 4 -2 13 4
21 6 7 7 18 3 26 -7 11 -14 10 -35 -4 -33 -22 -33 -39 -1 -67 24 -21 34 -48
17 -48 -15 0 -82 62 -82 76 0 24 -35 12 -38 -14 -4 -25 -19 -28 -47 -6 -12 9
-30 12 -47 8 -19 -4 -28 -2 -28 7 0 6 -7 17 -15 23 -12 9 -10 16 16 44 29 32
49 35 49 6 0 -8 -7 -14 -16 -14 -22 0 -12 -23 16 -37 12 -6 26 -17 30 -23 9
-15 30 -4 30 15 0 17 31 35 59 35 12 0 21 4 21 9 0 15 80 25 93 12 16 -16 37
-14 37 4 0 8 -7 15 -15 15 -17 0 -19 9 -5 30 9 13 12 13 21 -2 5 -10 17 -18
24 -18 9 0 15 -10 15 -26 0 -16 5 -24 13 -22 15 6 22 48 8 48 -6 0 -11 7 -11
15 0 8 -4 15 -9 15 -5 0 -11 12 -13 28 -2 19 -8 27 -20 26 -13 -1 -18 6 -18
27 0 35 -15 37 -48 7 -28 -25 -28 -29 1 44 18 45 -1 44 -45 0 -22 -23 -47 -42
-55 -42 -18 0 -17 16 2 24 19 7 20 45 1 52 -26 10 -71 -19 -71 -46 0 -14 -6
-25 -13 -24 -6 1 -23 2 -37 3 -26 1 -36 21 -10 21 8 0 15 5 15 10 0 6 7 10 15
10 8 0 15 7 15 15 0 19 -5 19 -35 -1 -28 -18 -35 -8 -8 11 20 15 11 45 -13 45
-9 0 -22 -7 -29 -17 -14 -19 -35 -9 -35 18 0 10 -4 19 -10 19 -5 0 -10 8 -10
18 -1 13 -8 9 -29 -15 -32 -38 -62 -45 -54 -12 8 29 -12 38 -71 33 -36 -3 -45
-2 -31 5 11 5 36 27 55 50 19 22 43 41 53 41 11 0 17 8 17 21 0 18 -3 19 -15
9 -8 -6 -19 -9 -25 -5 -40 25 36 71 100 61 37 -6 40 -5 40 18 0 13 8 34 18 46
15 19 22 21 40 11 46 -25 91 -1 62 34 -12 14 -11 25 6 106 5 20 0 29 -20 42
-28 18 -42 16 -99 -20 -51 -32 -48 -63 8 -79 29 -8 40 -16 40 -30 0 -24 -52
-45 -64 -25 -6 9 -15 4 -34 -18 -27 -33 -53 -42 -43 -15 3 9 6 19 6 23 0 5 11
20 25 35 43 46 8 63 -53 26 -32 -20 -52 -19 -52 1 0 5 11 9 25 9 18 0 28 7 35
25 7 17 17 25 34 25 16 0 30 8 37 23 20 36 73 97 86 97 7 0 16 -6 20 -13 4 -7
22 -19 38 -27 17 -8 33 -16 37 -18 3 -2 9 7 13 20 12 37 36 58 67 58 33 0 38
15 7 23 -34 9 -16 32 29 35 36 3 41 0 44 -20 2 -17 11 -24 31 -26 18 -2 32
-12 39 -28 14 -29 34 -31 41 -4 3 11 14 20 24 20 11 0 33 16 50 35 35 39 43
43 43 19z m1685 -40 c-9 -7 -14 -18 -10 -24 3 -6 2 -25 -4 -43 -6 -17 -7 -47
-3 -65 6 -29 15 -37 61 -56 56 -24 73 -40 64 -63 -8 -22 -51 -35 -73 -23 -15
8 -21 6 -30 -10 -6 -11 -17 -20 -25 -20 -18 0 -20 31 -3 48 10 10 9 16 -4 28
-22 22 -48 11 -48 -21 0 -16 -6 -25 -15 -25 -19 0 -19 18 -2 39 8 9 20 38 27
64 11 42 11 50 -3 64 -8 8 -27 16 -41 16 -14 0 -26 3 -26 8 0 14 31 39 50 39
11 0 24 9 30 20 6 11 17 20 25 20 8 0 20 9 27 20 8 12 14 16 17 8 2 -6 -4 -17
-14 -24z m275 -130 c6 -14 8 -29 5 -34 -3 -5 -1 -10 5 -12 17 -5 20 -45 5 -65
-12 -15 -17 -16 -34 -5 -12 6 -28 12 -37 12 -13 0 -15 -7 -9 -37 4 -21 11 -44
17 -50 14 -18 38 -16 38 2 0 8 7 15 15 15 8 0 15 -2 15 -4 0 -2 3 -11 6 -20 4
-11 0 -16 -13 -16 -26 0 -47 -44 -33 -70 22 -42 14 -51 -42 -44 -77 9 -140 35
-135 56 3 9 -2 26 -10 38 -12 17 -12 24 -2 36 7 9 20 13 30 11 9 -3 21 -2 26
2 17 11 53 69 53 84 0 8 11 22 25 31 17 11 25 26 25 44 0 27 15 52 32 52 5 0
13 -12 18 -26z m1557 -80 c22 -24 26 -25 107 -18 77 6 88 5 123 -16 33 -20 49
-22 133 -19 l95 4 17 -37 c21 -44 15 -112 -13 -149 -16 -22 -24 -24 -82 -21
-76 3 -206 -20 -240 -43 -14 -9 -30 -29 -37 -44 -8 -21 -20 -30 -43 -34 -18
-2 -36 -3 -42 0 -19 7 -48 122 -42 166 7 50 2 59 -40 76 -34 14 -73 65 -73 95
0 10 14 31 30 48 36 35 71 33 107 -8z m-2089 -18 c14 -38 68 -116 81 -116 4 0
15 18 24 41 9 22 20 38 25 35 16 -10 45 -98 34 -105 -5 -3 -18 -24 -28 -46
-17 -39 -18 -40 -22 -12 -4 32 -48 80 -77 84 -24 4 -26 6 -60 70 -23 43 -26
55 -15 68 18 22 25 19 38 -19z m-4500 -319 c-2 -6 -11 -37 -20 -67 -10 -30
-20 -67 -23 -82 -3 -19 -10 -26 -20 -22 -20 8 -29 -35 -27 -126 1 -41 -1 -96
-4 -122 -5 -44 -7 -47 -26 -37 -10 6 -28 12 -39 14 -24 5 -66 34 -98 69 -41
44 -17 113 74 209 23 24 35 47 35 66 0 41 40 95 75 101 59 11 77 10 73 -3z
m4342 -2 c7 -8 10 -22 6 -31 -10 -26 12 -54 44 -54 39 0 45 15 20 51 l-22 30
29 -7 c15 -5 37 -7 48 -7 11 1 36 -1 55 -4 33 -4 34 -6 15 -19 -10 -8 -29 -14
-42 -14 -13 0 -24 -6 -24 -12 -5 -49 16 -78 56 -78 11 0 28 -9 38 -20 12 -15
24 -19 42 -14 34 8 32 -9 -3 -22 -24 -9 -32 -8 -56 13 -34 29 -72 32 -57 5 6
-10 8 -28 5 -39 -8 -29 9 -36 42 -18 32 16 40 12 49 -27 5 -20 2 -31 -14 -45
-24 -20 -27 -43 -8 -62 7 -7 12 -42 12 -94 0 -75 2 -82 21 -85 23 -3 59 31 49
47 -3 6 -13 11 -21 11 -23 0 -16 17 17 43 27 21 30 27 20 46 -7 11 -19 21 -29
21 -16 0 -2 11 46 36 7 4 30 -1 50 -9 49 -21 74 -25 79 -11 4 12 -19 40 -39
46 -16 6 -1 28 19 28 8 0 17 -9 20 -20 3 -10 16 -26 30 -35 20 -13 22 -19 12
-31 -18 -22 27 -67 59 -59 15 4 34 -1 49 -10 20 -13 23 -22 18 -45 -5 -22 -2
-31 14 -39 24 -13 71 -14 90 -2 12 8 12 13 -2 35 -25 38 -21 46 23 46 22 0 40
-3 40 -7 0 -25 -36 -93 -51 -98 -18 -6 -18 -7 1 -45 26 -50 38 -57 56 -31 19
27 51 27 59 1 4 -11 24 -29 46 -41 38 -19 45 -39 13 -39 -19 0 -18 -19 2 -27
8 -3 28 4 44 16 16 11 31 21 34 21 6 0 -10 -63 -23 -87 -9 -19 -8 -24 8 -33
11 -5 24 -10 29 -10 9 0 58 -43 140 -122 37 -37 41 -53 12 -45 -15 4 -24 -2
-37 -26 -19 -39 -30 -47 -65 -47 -18 0 -29 6 -33 20 -3 11 -11 20 -16 20 -21
0 -7 31 21 45 31 16 40 40 18 48 -19 6 -86 -30 -122 -67 -42 -41 -49 -70 -25
-92 17 -16 39 -16 99 -2 11 2 15 -5 15 -27 0 -32 -7 -34 -60 -21 -26 7 -28 5
-88 -64 -17 -20 -19 -20 -47 -3 -17 9 -30 23 -30 30 0 23 -22 25 -51 4 -15
-11 -31 -21 -34 -21 -2 0 -25 -15 -50 -34 -37 -29 -51 -34 -80 -29 -23 4 -43
0 -59 -10 -22 -15 -25 -15 -39 1 -8 9 -18 31 -21 49 -6 25 -3 34 15 47 22 15
22 16 5 35 -17 19 -17 21 8 66 41 72 32 85 -25 38 -18 -15 -49 -33 -68 -40
-33 -12 -38 -11 -53 8 -10 12 -18 27 -18 35 0 8 -7 14 -16 14 -33 0 -7 36 43
60 29 14 55 31 58 38 7 19 -23 27 -49 12 -20 -10 -28 -9 -50 5 -15 10 -25 21
-24 24 52 101 64 120 83 125 14 4 25 16 28 33 4 16 9 38 13 51 5 16 2 22 -9
22 -19 0 -23 5 -31 53 -5 26 -3 37 5 37 7 0 22 9 33 19 20 19 24 19 69 4 37
-12 47 -20 47 -38 0 -24 9 -37 21 -29 5 2 3 16 -3 29 -9 21 -8 29 7 45 21 23
13 39 -10 20 -20 -17 -48 -5 -41 18 8 25 -32 83 -68 101 -21 10 -34 11 -52 2
-31 -14 -31 -39 2 -51 31 -12 29 -44 -2 -48 -14 -2 -27 -17 -37 -44 -13 -33
-19 -39 -30 -29 -19 15 -34 -3 -39 -44 -2 -22 -9 -31 -26 -33 -31 -5 -39 -29
-16 -47 18 -14 18 -16 2 -25 -19 -12 -13 -40 8 -40 16 0 19 -26 5 -35 -6 -3
-15 4 -21 15 -13 24 -30 26 -30 4 0 -8 -8 -23 -17 -32 -15 -16 -16 -15 -10 13
8 41 -31 82 -62 66 -11 -6 -23 -20 -26 -31 -8 -26 -31 -26 -38 1 -5 17 -9 19
-26 10 -11 -6 -32 -11 -47 -11 -27 0 -27 0 -8 21 14 15 26 19 47 15 16 -3 40
0 57 9 33 17 76 21 108 11 20 -7 23 -5 20 11 -2 10 -13 22 -26 28 -30 13 -22
29 17 35 33 5 33 5 13 24 -17 15 -19 21 -9 37 15 24 2 36 -20 17 -10 -9 -28
-19 -40 -22 -16 -5 -23 -15 -23 -32 0 -13 -4 -24 -9 -24 -5 0 -8 30 -7 68 l1
67 30 -3 c17 -2 37 -10 47 -19 28 -25 32 5 4 38 -14 17 -26 39 -26 50 0 16 -7
19 -40 17 -55 -2 -69 -12 -47 -36 24 -26 22 -35 -13 -55 -33 -20 -38 -32 -15
-41 25 -9 17 -33 -25 -69 -28 -24 -40 -42 -40 -61 0 -19 -7 -29 -24 -36 -13
-5 -29 -17 -35 -27 -16 -27 -13 2 3 42 8 19 20 35 25 35 6 0 8 12 5 30 -5 25
-3 30 13 30 19 0 53 32 53 50 0 6 -11 15 -24 21 -31 15 -23 39 14 39 20 0 29
6 34 22 8 32 -15 53 -42 39 -17 -9 -23 -8 -31 7 -6 11 -6 24 0 33 14 22 11 36
-10 42 -25 6 -36 -2 -48 -37 -16 -51 -36 -45 -28 8 5 34 3 55 -9 81 -10 20
-14 44 -10 60 8 32 -19 75 -47 75 l-21 0 21 34 c12 18 21 36 21 40 0 15 -49 4
-80 -19 -18 -14 -36 -22 -39 -19 -3 4 0 9 6 11 7 3 23 13 35 23 l22 18 -32 7
c-40 8 -40 16 -2 38 23 14 42 16 92 11 52 -5 66 -3 77 10 17 20 74 21 91 1z
m-861 -67 c26 3 28 1 23 -23 -3 -17 0 -30 9 -36 7 -4 10 -12 5 -16 -4 -4 -14
1 -22 12 -15 20 -15 20 -35 -4 -10 -13 -19 -27 -19 -32 0 -17 21 -20 36 -4 12
12 20 13 27 6 6 -6 24 -11 41 -11 17 0 40 -9 53 -22 27 -26 32 -54 6 -40 -11
7 -21 6 -29 -3 -16 -15 -64 -8 -64 10 0 7 5 15 12 17 6 2 -6 4 -28 3 -21 0
-45 -5 -52 -9 -21 -13 -36 8 -23 32 8 16 7 21 -4 26 -8 3 -20 17 -27 31 -6 14
-17 25 -25 25 -15 0 -18 26 -3 35 5 3 20 1 32 -6 13 -6 20 -8 16 -4 -4 4 -2
17 4 28 10 20 11 20 25 1 9 -12 23 -18 42 -16z m-4380 -113 c104 -40 237 -56
313 -37 57 14 106 1 153 -40 43 -37 45 -66 9 -134 -42 -80 -54 -88 -128 -86
-57 2 -68 -1 -96 -25 -24 -20 -31 -32 -27 -50 4 -22 2 -24 -22 -18 -14 3 -39
19 -56 34 -16 15 -46 38 -65 51 -19 13 -57 45 -85 71 -62 60 -107 79 -186 79
-71 0 -107 20 -133 74 -33 69 -17 98 56 107 126 15 172 11 267 -26z m3615
-284 c3 -4 24 -11 47 -14 22 -3 49 -13 59 -22 10 -9 24 -14 29 -10 6 3 11 4
11 1 0 -2 3 -11 6 -19 3 -9 -3 -16 -15 -20 -25 -6 -26 -16 -7 -42 12 -17 16
-18 31 -5 15 13 19 12 31 -5 8 -10 14 -22 14 -27 0 -14 24 -9 48 10 15 12 24
29 24 50 1 41 24 42 62 3 21 -22 26 -35 21 -53 -11 -41 -28 -68 -42 -68 -16 0
-17 19 -3 56 17 43 -4 49 -34 9 -15 -19 -32 -35 -38 -35 -6 0 -19 -7 -29 -15
-15 -14 -18 -14 -33 0 -9 9 -16 22 -16 28 0 15 -61 57 -83 57 -10 0 -20 -7
-23 -15 -8 -21 -21 -19 -27 5 -6 23 -45 27 -79 9 -25 -13 -35 -4 -18 17 8 8
14 23 15 32 6 66 31 103 49 73z m-1414 -184 c0 -7 9 -23 20 -35 11 -12 20 -28
20 -37 0 -8 18 -35 41 -60 38 -41 40 -47 34 -85 -7 -43 -86 -140 -114 -140
-11 0 -6 -9 14 -26 29 -25 30 -25 5 -20 -14 3 -33 6 -42 6 -10 0 -28 21 -45
53 -25 46 -32 52 -59 51 -44 -2 -86 -25 -100 -53 -19 -37 -8 -47 46 -47 56 0
90 -23 90 -61 0 -16 -6 -23 -20 -23 -11 0 -20 -4 -20 -9 0 -4 9 -20 20 -34 25
-32 25 -33 -7 -62 -21 -19 -35 -23 -56 -19 -22 5 -32 1 -43 -14 -11 -17 -21
-19 -56 -15 -24 3 -52 14 -63 24 -13 11 -29 16 -42 13 -16 -4 -35 5 -68 32
-46 37 -46 38 -40 85 6 41 3 53 -19 85 -28 41 -27 57 2 31 25 -23 64 -21 107
4 22 13 45 19 61 16 22 -4 30 2 55 41 34 54 37 82 10 82 -11 0 -22 4 -26 10
-6 10 29 50 44 50 12 0 24 52 13 59 -13 9 -22 80 -11 86 5 4 16 -1 25 -9 20
-21 30 -20 54 4 24 24 48 26 56 5 8 -20 27 -19 66 5 39 23 48 25 48 7z m4554
-112 c11 -8 29 -15 40 -15 39 0 81 -35 94 -77 15 -51 55 -91 99 -99 28 -5 34
-10 30 -25 -3 -11 -1 -19 4 -19 5 0 9 -5 9 -11 0 -6 -15 -8 -44 -4 -48 8 -106
-14 -106 -40 0 -17 16 -20 24 -6 4 5 21 5 41 -2 26 -7 37 -18 42 -36 3 -14 21
-42 40 -63 36 -36 50 -58 76 -113 21 -43 49 -65 92 -70 47 -6 67 -22 63 -49
-2 -14 -13 -22 -36 -27 -19 -4 -47 -21 -65 -41 -18 -19 -48 -40 -68 -47 -33
-10 -42 -9 -80 11 -53 27 -181 34 -214 12 -41 -29 -115 -7 -115 35 0 9 9 30
20 46 11 17 20 45 20 64 0 33 -1 33 -32 26 -77 -16 -107 -15 -118 5 -14 26 11
82 47 105 42 28 61 52 68 86 10 46 28 79 59 108 26 24 35 51 17 51 -19 0 -42
32 -36 51 4 11 0 26 -10 35 -15 15 -17 15 -34 0 -21 -19 -50 -21 -57 -3 -2 7
3 31 13 53 9 21 16 42 15 46 -1 4 4 5 11 2 7 -2 21 2 32 10 25 19 35 19 59 1z
m-4140 -93 c-16 -10 -25 -70 -13 -78 6 -4 15 0 20 7 8 12 11 11 20 -4 10 -16
12 -16 29 5 19 23 19 23 -7 44 l-26 22 49 -5 c28 -3 55 -12 62 -21 17 -22 15
-30 -5 -28 -13 1 -19 -8 -21 -28 -3 -27 -2 -29 27 -23 18 4 31 2 31 -3 0 -15
-49 -32 -71 -25 -15 5 -19 1 -19 -20 0 -22 -4 -26 -22 -23 -23 3 -25 13 -13
54 5 17 2 23 -17 27 -28 8 -45 -7 -30 -25 11 -14 11 -49 -1 -48 -4 0 -14 0
-23 0 -11 0 -14 5 -10 16 3 8 2 23 -3 33 -6 10 -7 43 -4 74 5 53 7 57 32 57
14 0 21 -4 15 -8z m2283 -109 l-2 -68 35 0 c36 0 36 0 32 -55 -1 -12 -9 -20
-21 -20 -28 0 -35 -30 -13 -60 26 -34 58 -38 68 -8 4 13 24 42 45 66 21 24 40
53 42 65 3 14 5 9 6 -13 1 -48 -30 -107 -75 -139 -35 -25 -35 -26 -16 -41 10
-9 25 -33 32 -54 8 -26 21 -42 40 -50 28 -11 28 -11 9 -35 -10 -13 -19 -29
-19 -37 0 -9 -12 -14 -34 -14 -19 0 -46 -4 -61 -10 -25 -9 -25 -12 -19 -73 l6
-64 -30 5 c-19 2 -40 -2 -54 -12 -12 -9 -33 -16 -46 -16 -12 0 -25 -8 -29 -17
-3 -10 -13 -26 -21 -35 -12 -15 -12 -19 1 -38 l15 -21 21 27 c19 25 21 25 21
6 0 -11 -5 -24 -11 -27 -5 -4 -15 -19 -21 -33 l-10 -27 -14 40 c-8 22 -21 46
-28 54 -12 12 -7 23 36 77 31 40 47 68 42 76 -5 7 5 3 20 -10 36 -28 42 -28
62 3 13 20 14 31 5 55 -5 17 -8 44 -5 60 5 24 12 29 38 32 l31 3 0 65 c0 59
-2 65 -22 68 -11 2 -26 -3 -32 -10 -6 -7 -22 -26 -35 -43 -19 -24 -27 -27 -37
-18 -17 17 4 63 30 63 39 0 42 72 5 111 -23 24 -25 32 -17 56 11 31 3 62 -21
82 -12 10 -14 17 -5 27 6 8 18 14 25 14 8 0 14 10 14 23 0 21 7 37 16 37 2 0
2 -30 1 -67z m-2454 44 c50 -22 62 -40 46 -77 -16 -34 -21 -36 -39 -15 -10 13
-10 19 5 35 10 11 14 20 9 20 -5 0 -19 3 -31 6 -19 5 -23 2 -23 -15 0 -24 -10
-27 -28 -9 -9 9 -12 6 -12 -14 0 -17 -6 -28 -17 -31 -14 -4 -12 -5 5 -6 34 -2
102 -25 102 -35 0 -5 12 -20 26 -33 17 -16 24 -31 21 -44 -4 -15 1 -23 19 -29
18 -7 24 -17 24 -39 0 -16 5 -33 10 -36 7 -4 7 -11 2 -18 -5 -7 -11 -24 -14
-38 -4 -25 -1 -27 35 -33 22 -4 41 -5 43 -3 2 2 -7 18 -21 37 l-25 33 22 11
c32 16 32 30 -2 49 -31 19 -66 79 -55 96 3 6 -4 24 -16 40 -21 29 -21 61 2 61
6 0 13 -9 16 -19 5 -19 37 -37 78 -43 29 -5 24 -22 -7 -26 -42 -5 -53 -25 -31
-59 25 -38 54 -62 78 -63 12 0 30 -16 44 -40 30 -49 46 -55 71 -30 11 11 22
20 24 20 2 0 7 -16 10 -35 8 -41 19 -44 40 -13 19 27 21 48 3 48 -7 0 -27 29
-45 65 -32 65 -49 77 -71 51 -10 -11 -7 -19 13 -38 17 -15 23 -28 17 -36 -7
-11 -16 -9 -48 11 -41 26 -83 71 -83 89 0 6 17 7 40 3 44 -7 70 5 70 34 0 9 4
23 10 31 7 12 12 11 30 -5 16 -14 23 -16 32 -7 9 9 7 17 -10 32 -25 23 -28 40
-10 58 19 19 28 14 28 -18 0 -33 14 -38 41 -14 22 20 35 12 42 -23 3 -16 8
-39 13 -52 6 -22 5 -22 -15 -11 -26 13 -41 6 -23 -12 20 -20 13 -30 -18 -26
-36 5 -40 -14 -11 -51 10 -14 17 -31 14 -38 -4 -9 0 -11 13 -7 36 13 45 27 42
63 -3 33 0 36 25 39 22 3 27 -1 27 -18 0 -26 25 -37 45 -20 20 17 31 5 15 -15
-12 -14 -9 -20 16 -40 16 -14 36 -25 44 -25 8 0 26 -9 40 -20 25 -19 25 -20 3
-20 -13 0 -46 9 -75 20 -47 18 -53 18 -69 4 -14 -13 -22 -13 -39 -4 -18 10
-25 9 -38 -3 -22 -23 2 -79 32 -75 17 2 22 -3 24 -30 l3 -33 -48 6 c-26 4 -74
2 -105 -3 -31 -5 -61 -6 -65 -2 -4 4 -27 10 -49 14 -39 6 -42 4 -47 -21 -3
-15 -3 -33 0 -40 8 -20 69 -16 90 6 31 32 70 32 103 0 37 -38 68 -37 100 1 32
39 56 33 56 -15 0 -22 -5 -35 -13 -35 -7 0 -13 -4 -13 -9 0 -5 -10 -12 -22
-16 -44 -12 -66 -28 -61 -41 3 -9 -2 -14 -16 -14 -15 0 -21 -6 -21 -21 0 -33
18 -59 36 -52 13 5 15 1 9 -18 -15 -51 -77 -66 -83 -21 -4 28 -28 39 -53 23
-27 -16 -57 5 -61 42 -2 22 6 39 34 69 20 22 34 46 31 54 -7 19 -62 18 -69 -1
-4 -9 -19 -15 -35 -15 -24 0 -29 4 -29 23 0 12 -7 33 -16 45 l-16 23 -18 -24
c-10 -13 -18 -31 -17 -41 1 -11 -4 -21 -10 -23 -7 -3 -13 1 -13 8 0 16 -50 69
-64 69 -6 0 -17 10 -25 22 l-14 22 -18 -23 c-15 -18 -22 -20 -38 -12 -11 6
-27 8 -35 5 -11 -4 -16 0 -16 13 0 31 30 50 75 47 90 -6 108 -11 127 -34 20
-24 20 -24 34 -5 14 18 12 22 -13 43 -75 60 -169 92 -132 44 11 -14 9 -13 -9
2 -12 11 -22 27 -22 36 0 18 -39 40 -71 40 -21 0 -24 5 -33 58 -4 24 -2 32 9
32 8 0 15 5 15 10 0 6 -4 10 -10 10 -19 0 -10 32 10 37 20 5 20 6 -5 48 -20
34 -22 44 -11 48 9 4 12 14 9 27 -13 49 52 75 120 47z m2159 -201 c39 -20 75
-36 80 -36 4 0 8 13 8 29 0 38 22 56 49 41 28 -14 27 -19 -11 -50 -30 -25 -32
-29 -20 -55 12 -27 12 -27 -15 -21 -40 10 -83 27 -83 35 0 10 -50 61 -60 61
-6 0 -10 -16 -10 -35 0 -19 -4 -35 -8 -35 -16 0 -52 60 -52 88 0 15 -7 37 -15
48 -8 10 -15 27 -15 36 0 12 13 4 40 -26 23 -25 71 -59 112 -80z m718 -86 c0
-5 -5 -10 -10 -10 -6 0 -16 -12 -23 -27 -6 -16 -17 -32 -24 -36 -7 -4 -13 -19
-13 -32 0 -18 -5 -25 -19 -25 -29 0 -34 -16 -15 -46 15 -22 22 -25 48 -19 17
3 48 9 69 12 38 5 58 26 41 43 -6 6 -24 5 -45 -2 -26 -7 -42 -7 -55 0 -17 10
-15 12 19 27 28 12 42 13 58 5 11 -6 27 -10 37 -9 55 5 56 -16 3 -64 -51 -46
-80 -61 -112 -58 -14 1 -31 -5 -39 -13 -18 -23 -43 -21 -35 3 11 35 -54 35
-82 0 -17 -22 -21 -68 -8 -86 11 -15 14 -15 36 0 14 10 43 17 71 17 26 0 50 5
53 10 3 6 13 10 21 10 20 0 18 -16 -6 -40 -13 -13 -33 -20 -58 -20 -24 0 -48
-7 -61 -19 -20 -17 -26 -18 -54 -7 -18 7 -40 16 -50 19 -18 7 -18 8 1 32 17
21 19 32 11 58 -13 47 -14 45 51 74 77 33 79 63 3 63 l-25 0 30 25 c17 14 41
25 55 25 19 0 38 14 68 50 41 48 59 61 59 40z m-3168 -74 c14 -20 8 -33 -13
-32 -24 1 -32 -10 -53 -78 -13 -43 -13 -52 0 -70 31 -44 5 -50 -35 -7 l-27 28
-44 -53 c-25 -29 -49 -53 -53 -53 -14 -2 -20 32 -9 50 7 10 9 25 6 34 -6 14
-3 14 20 4 30 -14 31 -13 40 23 5 22 2 27 -16 30 -15 2 -24 11 -26 27 -3 20
-1 23 15 17 42 -17 75 -19 84 -5 14 23 10 47 -8 45 -10 0 -19 7 -21 17 -4 21
16 22 39 1 22 -20 59 -3 59 26 0 14 5 18 18 13 9 -4 20 -11 24 -17z m-908 -98
c7 -12 6 -24 -4 -44 -12 -21 -12 -28 -2 -31 17 -6 15 -58 -3 -73 -8 -7 -15
-22 -15 -34 -1 -43 -34 -65 -74 -50 -12 5 -13 11 -5 32 6 15 13 50 15 77 2 28
5 64 6 81 5 58 55 84 82 42z m2516 -39 c0 -6 -9 -13 -20 -16 -30 -8 -39 -87
-12 -116 36 -40 43 -62 22 -75 -18 -11 -21 -22 -35 -104 -6 -40 -35 -54 -35
-18 0 17 -7 20 -40 20 -45 0 -52 16 -21 44 21 19 41 14 41 -10 0 -8 9 -14 20
-14 14 0 20 7 20 24 0 37 -10 54 -28 49 -9 -2 -26 3 -37 12 -18 15 -18 16 -2
11 12 -4 29 4 48 24 25 24 28 33 19 49 -5 11 -10 24 -9 28 4 21 -2 33 -17 33
-11 0 -14 5 -10 16 3 9 6 22 6 30 0 10 7 13 24 8 13 -3 27 -1 30 5 9 14 36 14
36 0z m-1722 -82 c-2 -16 10 -34 39 -62 32 -30 40 -44 33 -55 -8 -13 -11 -12
-22 3 -9 12 -20 16 -31 11 -20 -7 -36 -56 -20 -61 6 -2 4 -17 -5 -38 -15 -33
-35 -45 -79 -45 -14 0 -23 -7 -25 -22 -2 -12 -9 -23 -15 -26 -22 -7 -27 29 -9
63 12 21 15 41 11 55 -5 15 -2 26 6 31 20 13 29 11 29 -5 0 -8 9 -18 20 -21
11 -3 20 -13 20 -22 0 -20 24 -11 28 11 2 10 -5 24 -15 32 -17 14 -17 15 4 30
l21 15 -20 35 c-18 30 -19 38 -8 64 15 36 43 41 38 7z m596 -42 c28 6 36 3 50
-17 14 -19 14 -25 3 -33 -8 -5 -12 -16 -10 -22 3 -7 1 -13 -4 -13 -5 0 -13 15
-18 32 -13 45 -43 50 -51 9 -7 -31 -28 -42 -37 -18 -4 8 -6 7 -6 -3 -1 -30 15
-43 37 -31 28 15 42 14 42 -4 0 -8 -7 -15 -15 -15 -18 0 -20 -26 -3 -36 8 -5
6 -10 -5 -19 -8 -6 -18 -28 -22 -48 -7 -35 -6 -37 20 -37 23 0 26 -2 15 -15
-15 -18 -120 -21 -120 -4 0 5 -16 17 -35 25 -32 13 -34 16 -23 35 15 23 54 18
74 -9 12 -16 15 -15 39 9 21 20 25 31 20 52 -8 28 -35 38 -35 12 0 -22 -16
-18 -34 7 -14 20 -14 24 1 40 9 10 12 18 7 18 -5 0 -33 -25 -63 -55 -39 -40
-59 -54 -73 -49 -27 8 -22 -15 6 -26 58 -22 25 -55 -44 -44 -30 5 -40 11 -40
25 0 11 6 19 14 19 7 0 19 6 25 13 8 11 6 18 -10 33 -17 16 -22 16 -29 4 -6
-8 -10 -19 -10 -24 0 -5 -11 8 -25 28 -20 29 -23 41 -15 57 12 21 14 22 48 13
12 -4 22 -13 22 -20 0 -15 9 -17 51 -14 16 1 29 -5 32 -14 13 -33 28 -16 21
22 -4 20 -3 34 1 30 15 -14 61 15 94 57 28 38 36 43 52 34 11 -5 34 -7 53 -4z
m-1533 -34 l24 -19 -19 -54 c-10 -30 -16 -65 -14 -79 3 -21 9 -24 51 -27 41
-3 49 -7 58 -30 6 -14 7 -37 4 -50 -5 -21 -11 -24 -41 -20 l-35 4 2 -40 c3
-60 1 -66 -21 -66 -28 0 -54 46 -55 96 0 34 -5 46 -28 64 -33 26 -57 70 -57
103 0 26 78 136 96 137 7 0 22 -9 35 -19z m2769 -26 c0 -8 8 -19 19 -24 10 -6
22 -22 25 -36 4 -14 11 -25 16 -25 20 0 9 -41 -16 -65 -22 -21 -24 -26 -13
-46 l12 -23 15 22 c8 12 22 22 32 22 24 0 44 26 36 46 -4 9 -4 26 0 37 6 18 7
19 16 4 5 -10 13 -17 17 -17 11 0 31 46 31 70 0 11 6 20 13 20 23 0 26 -10 11
-38 -8 -15 -14 -44 -14 -64 0 -31 -4 -38 -20 -38 -23 0 -63 -36 -55 -50 3 -5
-4 -11 -15 -15 -20 -6 -28 -39 -11 -50 6 -3 5 -20 -3 -43 -11 -33 -18 -38 -52
-42 -38 -5 -39 -6 -37 -42 2 -33 -1 -39 -24 -44 -15 -4 -34 -2 -46 6 -18 11
-23 8 -45 -20 -21 -26 -30 -31 -53 -26 -27 5 -29 3 -29 -24 0 -17 4 -30 10
-30 15 0 40 -56 40 -89 0 -16 7 -36 15 -44 15 -15 7 -65 -14 -90 -5 -7 -11
-23 -13 -37 -2 -17 -9 -25 -23 -25 -24 0 -23 27 4 65 17 26 15 85 -4 85 -5 0
-14 -13 -18 -30 -5 -16 -13 -38 -18 -47 -5 -10 -9 -30 -9 -45 0 -16 -7 -41
-15 -57 -8 -15 -15 -35 -15 -43 0 -9 -7 -13 -17 -11 -10 2 -17 10 -15 18 4 18
-17 30 -55 30 -22 0 -38 8 -52 26 -23 29 -30 67 -9 46 20 -20 29 -14 22 14 -5
19 1 35 27 67 18 23 41 47 50 54 9 7 24 28 33 47 13 27 14 40 5 59 -9 21 -8
30 7 51 13 16 25 23 37 20 10 -3 24 -1 32 6 9 8 15 8 20 0 5 -8 11 -8 21 1 23
19 16 47 -28 108 -17 23 -17 25 9 72 23 44 53 65 53 39 0 -5 6 -10 14 -10 8 0
22 -7 30 -16 13 -12 14 -20 5 -36 -9 -18 -8 -24 7 -35 23 -17 34 -16 59 3 20
15 20 15 -3 33 l-24 17 26 18 c22 14 25 20 15 37 -6 12 -17 18 -25 15 -12 -5
-14 -1 -8 17 3 12 11 28 17 35 15 18 -9 33 -48 30 -24 -2 -31 -8 -33 -28 -5
-36 -16 -43 -30 -20 -10 17 -10 20 3 20 9 0 15 9 15 25 0 15 6 25 14 25 8 0
18 5 22 11 4 8 -3 9 -25 4 -44 -9 -41 15 5 40 l36 19 24 -27 c35 -41 31 -6 -5
48 -16 24 -27 46 -24 49 9 9 43 -14 43 -29z m360 -169 c0 -8 -6 -16 -12 -19
-10 -3 -10 -8 -2 -17 19 -19 -5 -70 -33 -70 -15 0 -30 -10 -41 -28 -9 -16 -22
-27 -28 -25 -6 2 -28 -6 -48 -18 -39 -23 -41 -44 -8 -81 14 -17 16 -16 38 9
18 22 31 27 57 25 25 -2 42 4 66 23 l31 27 -10 -27 c-15 -39 -38 -58 -64 -53
-30 6 -51 -24 -36 -52 14 -25 13 -30 -5 -24 -8 4 -15 12 -15 20 0 8 -4 14 -10
14 -5 0 -10 -4 -10 -10 0 -5 -9 -10 -20 -10 -11 0 -20 -7 -20 -15 0 -8 -4 -15
-10 -15 -5 0 -10 5 -10 10 0 19 -42 10 -47 -10 -3 -12 -14 -20 -26 -20 -23 0
-62 -38 -97 -96 -14 -23 -36 -58 -50 -80 l-24 -38 -10 39 c-6 28 -6 40 3 43
22 7 42 34 36 51 -5 17 25 53 55 64 11 4 10 6 -4 6 -10 1 -34 -8 -52 -19 -33
-21 -33 -21 -43 -1 -17 31 -13 39 22 46 17 4 41 14 51 21 11 7 30 11 43 8 18
-5 23 -2 23 13 0 27 38 104 66 132 13 13 24 19 24 12 0 -6 6 -11 14 -11 7 0
27 29 45 65 31 66 44 78 55 50 9 -25 23 -17 50 30 26 43 56 60 56 31z m858
-84 c33 -3 39 -11 21 -29 -5 -5 -10 -34 -11 -63 0 -41 5 -57 21 -74 19 -18 23
-19 31 -6 5 8 10 32 10 52 0 43 15 88 30 88 13 0 13 -37 0 -45 -6 -4 -7 -23
-4 -47 6 -32 3 -44 -10 -54 -16 -11 -16 -16 -3 -55 14 -42 23 -52 60 -63 9 -3
17 -15 17 -26 0 -11 7 -23 15 -26 10 -4 13 -13 9 -26 -3 -10 0 -26 7 -34 6 -8
9 -17 5 -21 -9 -9 -46 27 -46 46 -1 19 -34 61 -49 61 -16 0 -25 -22 -23 -56 2
-18 -3 -36 -10 -41 -7 -4 -13 -15 -13 -23 0 -10 -10 -15 -30 -15 -47 -1 -49 5
-15 40 26 27 31 39 26 60 -5 18 -2 27 9 31 34 13 2 109 -44 134 -12 6 -21 17
-21 24 0 13 -29 26 -60 26 -12 0 -12 -2 -2 -9 8 -5 15 -37 18 -88 4 -77 3 -81
-18 -87 -38 -10 -51 -7 -44 9 3 9 -3 19 -14 25 -29 15 -25 28 15 51 28 17 33
24 24 35 -18 22 -29 83 -14 78 7 -3 20 4 28 16 9 12 20 19 27 15 11 -7 50 29
50 46 0 19 -46 31 -98 27 -63 -6 -82 -23 -82 -74 0 -18 -4 -36 -10 -39 -5 -3
-10 1 -10 9 0 9 -7 16 -15 16 -25 0 -20 -67 6 -80 11 -7 27 -9 35 -6 23 9 16
-17 -12 -43 l-25 -24 -6 21 c-3 12 -9 22 -13 22 -5 0 -12 9 -15 20 -4 13 -15
20 -32 20 -20 0 -23 3 -14 13 6 8 7 18 2 23 -5 5 -11 25 -15 44 -6 30 -5 32 7
16 16 -22 64 -18 58 4 -2 8 -6 30 -9 47 -4 28 0 34 23 43 30 11 45 6 45 -16 0
-24 18 -16 59 25 22 22 50 41 63 43 19 2 24 -2 28 -27 4 -25 10 -30 38 -33z
m-4030 -206 c45 -43 46 -46 44 -98 -3 -86 -60 -110 -117 -49 -95 102 -103 124
-60 166 38 39 77 33 133 -19z m882 -36 c0 -37 -2 -40 -27 -40 l-28 0 30 -24
c26 -21 33 -23 50 -12 11 7 25 28 31 47 14 40 51 56 40 18 -3 -13 -9 -43 -13
-67 -4 -27 -13 -46 -25 -53 -10 -5 -16 -14 -12 -20 3 -5 3 -17 0 -25 -5 -12
-14 -7 -42 23 -32 33 -41 38 -80 37 -31 -1 -44 3 -44 13 0 7 9 13 19 13 16 0
37 38 33 60 0 3 -3 17 -7 32 -7 27 -5 28 63 37 8 0 12 -13 12 -39z m2075 -80
c11 -17 15 -119 6 -125 -5 -3 -12 4 -16 15 -13 39 -35 20 -45 -40 -4 -29 -11
-37 -40 -46 -34 -11 -60 -47 -45 -62 4 -4 10 -1 12 6 3 6 16 12 29 12 30 0 31
-23 4 -50 -17 -17 -18 -21 -5 -26 18 -7 42 11 66 50 15 25 16 32 3 51 -13 20
-12 23 16 44 l30 22 9 -23 c5 -13 17 -43 27 -67 16 -40 16 -44 1 -53 -18 -10
-23 -38 -7 -38 6 0 10 5 10 12 0 9 3 9 11 1 6 -6 17 -9 24 -7 7 3 15 -2 18
-10 10 -25 -5 -87 -22 -94 -9 -3 -19 -10 -22 -15 -11 -16 -39 0 -39 21 0 30
26 48 45 32 29 -24 27 -1 -1 24 -22 19 -36 23 -59 19 -16 -4 -33 -11 -37 -17
-6 -8 -10 -8 -15 0 -12 17 -80 25 -91 11 -12 -16 -22 -96 -12 -102 4 -2 21 13
39 35 18 22 38 40 46 40 21 0 19 -56 -1 -72 -9 -7 -26 -23 -39 -35 -41 -42
-70 -23 -78 49 -2 20 -18 57 -36 83 -32 48 -36 69 -8 41 18 -19 27 -11 27 25
0 16 10 45 22 66 12 21 27 50 35 65 8 16 25 29 43 33 23 5 30 12 30 31 0 14 6
24 14 24 22 0 28 17 16 40 -6 11 -8 25 -5 30 8 13 32 13 40 0z m-831 -86 c6
-23 3 -59 -10 -122 -4 -20 -2 -21 15 -10 16 9 25 9 43 -1 45 -24 58 -38 52
-55 -5 -13 -17 -16 -63 -12 -87 6 -115 15 -128 42 -7 16 -8 26 -1 30 5 4 7 21
3 41 -4 25 -1 42 11 61 36 55 68 66 78 26z m-717 -323 c2 -10 15 -24 28 -31
13 -7 29 -26 36 -41 20 -50 101 -52 113 -4 4 14 4 30 1 35 -3 4 4 6 15 3 25
-7 34 -19 23 -35 -4 -7 -8 -22 -8 -33 0 -17 -8 -20 -48 -23 -42 -3 -47 -5 -42
-23 4 -12 -2 -29 -15 -46 -20 -25 -20 -28 -4 -40 9 -7 21 -14 27 -16 6 -2 7
-9 3 -15 -14 -22 -36 -12 -53 24 -16 34 -16 37 0 66 22 38 21 48 0 48 -29 0
-113 98 -113 132 0 24 30 23 37 -1z m-84 -124 c14 -5 16 -11 7 -26 -15 -29
-13 -34 14 -27 33 8 76 -31 76 -68 0 -34 -22 -30 -30 5 -8 34 -72 40 -105 9
-29 -27 -39 -64 -25 -90 8 -15 6 -22 -11 -34 -22 -15 -18 -36 5 -36 18 0 33
-19 41 -53 9 -36 -17 -37 -34 -1 -8 18 -17 24 -27 20 -40 -15 -60 45 -23 65
18 9 21 17 16 50 -4 32 -1 44 15 59 25 23 16 40 -23 40 -16 0 -29 2 -29 5 0 8
62 65 71 65 5 0 9 12 9 27 0 24 1 25 18 11 9 -8 25 -18 35 -21z m-249 -23 c9
-3 16 -12 16 -19 0 -21 19 -28 36 -14 19 15 32 3 40 -38 6 -32 6 -32 -23 -21
-17 6 -38 8 -47 5 -15 -6 -15 -10 4 -48 31 -60 24 -90 -28 -116 -2 0 4 -16 13
-33 23 -44 8 -57 -42 -37 -36 15 -38 17 -35 57 2 29 -4 50 -19 71 -22 31 -39
30 -39 -2 0 -12 -7 -19 -19 -19 -17 0 -20 7 -20 53 0 45 4 54 22 62 14 6 23
21 25 38 3 20 8 27 20 25 17 -4 17 -9 5 -70 -4 -22 -1 -28 11 -28 9 0 22 -11
28 -25 11 -24 36 -30 31 -8 -1 6 -4 32 -7 59 -2 27 -9 64 -14 82 -9 28 -8 32
8 32 10 0 25 -3 34 -6z m-230 -103 c-22 -50 -17 -72 24 -114 69 -72 66 -122
-3 -67 -36 29 -39 30 -63 14 -34 -22 -46 -7 -43 59 1 20 7 31 22 34 19 5 21
11 15 56 -7 65 9 90 37 56 10 -13 15 -29 11 -38z m2976 -195 c0 -7 -10 -26
-22 -41 -20 -26 -20 -28 -4 -56 10 -16 17 -44 15 -62 -4 -58 -1 -71 15 -58 16
13 46 4 46 -14 0 -7 -7 -18 -15 -25 -10 -8 -15 -31 -15 -71 0 -57 0 -58 -27
-57 -16 1 -36 -2 -46 -7 -14 -6 -20 -1 -30 24 -14 39 -23 39 -31 0 -3 -18 -11
-29 -18 -27 -16 5 -24 78 -9 78 6 0 11 12 11 26 0 21 -4 24 -20 19 -14 -5 -20
-2 -20 9 0 9 5 16 10 16 6 0 10 13 10 30 0 16 6 41 12 56 10 22 10 28 0 32 -6
2 -12 15 -12 29 0 26 0 26 21 7 21 -19 22 -19 33 0 6 10 21 34 34 53 12 18 22
43 22 54 0 17 3 18 20 9 11 -6 20 -17 20 -24z m-2821 -74 c6 -29 8 -65 5 -78
-4 -14 -1 -36 6 -50 15 -27 13 -31 -15 -36 -15 -2 -21 3 -23 25 -2 15 -9 27
-16 27 -6 0 -27 13 -46 29 l-35 29 18 36 c9 20 17 43 17 51 0 9 10 15 24 15
14 0 28 5 32 11 10 17 21 -2 33 -59z m2414 42 c9 -4 17 -13 17 -20 0 -8 4 -22
9 -32 5 -9 12 -25 15 -36 5 -15 9 -16 22 -6 10 9 18 10 25 3 12 -12 -43 -84
-72 -95 -20 -8 -27 -38 -9 -38 17 0 11 -37 -7 -44 -48 -19 -55 68 -9 117 29
32 36 50 25 68 -7 12 -12 12 -30 1 -18 -12 -24 -11 -37 2 -13 12 -13 19 -4 28
7 7 12 25 12 41 0 19 4 27 13 23 6 -3 20 -9 30 -12z m-3441 -34 c15 11 33 18
41 14 17 -6 30 -85 16 -98 -5 -6 -9 -20 -9 -32 0 -32 -20 -44 -61 -35 -38 9
-79 28 -79 38 0 3 8 12 18 19 14 11 14 15 3 23 -9 6 -10 11 -2 15 6 4 7 16 2
29 -4 12 -5 31 -3 42 4 18 6 17 26 -8 l22 -28 26 21z m1806 -31 c5 -31 14 -40
57 -55 30 -10 37 -9 45 5 8 14 12 13 37 -12 28 -27 28 -28 11 -58 -10 -17 -18
-48 -18 -70 0 -32 3 -39 20 -39 30 0 24 -17 -7 -23 -36 -8 -113 23 -113 44 0
9 -7 22 -15 29 -22 18 -19 33 4 20 23 -12 47 -5 55 16 3 9 10 13 15 9 6 -3 15
3 20 14 8 14 7 20 -4 25 -8 3 -15 1 -15 -5 0 -5 -14 -2 -31 7 -24 12 -33 13
-39 4 -4 -7 -16 -10 -26 -8 -16 3 -19 13 -19 66 0 60 16 82 23 31z m-1259 -9
c19 -10 71 -126 71 -158 0 -10 12 -32 27 -49 15 -17 32 -49 38 -70 7 -27 17
-39 32 -41 23 -3 53 31 53 61 0 34 33 14 47 -29 8 -24 24 -46 38 -54 32 -17
43 -70 21 -102 -22 -30 -20 -70 4 -111 11 -18 21 -52 22 -75 1 -36 5 -42 22
-42 12 0 32 -7 44 -16 20 -14 22 -14 22 4 0 10 9 27 20 37 13 12 20 31 20 57
0 38 7 46 26 29 17 -16 92 -20 105 -5 6 8 20 14 30 14 15 0 19 -8 19 -40 0
-33 -3 -40 -20 -40 -26 0 -25 -5 5 -44 16 -21 25 -46 25 -69 0 -26 6 -39 20
-47 28 -15 26 -63 -4 -95 -24 -25 -25 -26 -55 -10 -28 14 -33 14 -56 -1 l-26
-17 21 -19 c30 -28 27 -75 -7 -91 -30 -13 -73 -50 -73 -62 0 -4 25 -31 55 -60
30 -30 55 -58 55 -64 0 -6 -9 -20 -20 -31 -19 -19 -22 -19 -50 -5 -22 11 -30
23 -31 43 -2 55 -6 74 -26 100 -32 43 -63 40 -109 -10 -53 -59 -107 -98 -168
-123 -50 -20 -51 -21 -57 -69 -8 -76 -59 -101 -87 -43 -12 25 -11 34 12 80 14
29 30 79 37 111 6 33 23 78 38 99 54 81 63 108 41 122 -5 3 -10 15 -10 25 0
22 -56 84 -69 76 -5 -3 -21 1 -37 8 -24 13 -28 21 -29 67 -1 29 -7 55 -12 56
-16 6 -42 -35 -36 -58 4 -14 0 -19 -16 -19 -33 0 -83 29 -78 44 3 8 1 18 -4
23 -6 6 -4 14 6 23 19 16 19 38 -1 86 -11 25 -15 56 -12 91 4 48 2 55 -25 80
-43 41 -61 81 -67 147 -3 38 -10 62 -20 66 -8 4 -28 14 -44 21 -37 18 -43 36
-18 59 21 20 38 18 122 -17 l35 -15 37 43 c21 24 38 52 38 62 0 19 27 77 36
77 3 0 13 -4 23 -10z m2591 -335 c-7 -8 -10 -22 -6 -30 6 -17 -12 -65 -25 -65
-4 0 -11 4 -14 10 -10 16 -85 -66 -85 -93 0 -13 -7 -30 -15 -37 -21 -18 -19
-40 5 -40 26 0 36 -25 24 -58 -11 -32 -34 -41 -34 -13 0 12 -6 21 -15 21 -20
0 -38 47 -30 80 4 14 15 34 25 45 11 11 26 36 35 55 8 19 21 43 27 52 10 14 9
20 -6 31 -17 13 -17 14 8 30 14 9 38 17 53 17 15 0 35 4 43 10 20 12 26 4 10
-15z m-3202 -25 c13 -16 31 -30 42 -30 10 0 22 -5 25 -11 4 -6 14 -8 22 -4 22
8 63 -21 63 -45 0 -10 6 -23 14 -27 7 -4 21 -22 29 -39 16 -31 15 -33 -5 -46
-20 -13 -20 -16 -5 -44 9 -16 21 -39 28 -51 10 -19 6 -27 -42 -76 -52 -52
-104 -77 -129 -62 -19 12 -51 86 -49 113 3 34 -9 78 -31 117 -51 91 -58 172
-18 214 25 27 30 27 56 -9z m6224 -214 c33 -30 30 -61 -8 -94 -22 -20 -35 -23
-68 -18 -39 5 -75 12 -86 15 -6 2 121 121 129 121 3 0 18 -11 33 -24z m-3984
-189 c2 -15 10 -27 17 -27 8 0 17 -4 20 -10 7 -12 -13 -52 -31 -63 -21 -12
-17 -27 7 -24 12 1 24 -3 26 -9 6 -18 -30 -55 -55 -57 -23 -1 -24 -3 -8 -52 4
-11 -1 -6 -10 12 -9 17 -32 40 -50 49 -21 12 -38 31 -45 51 -13 40 -2 103 18
103 8 0 28 14 44 31 34 37 63 35 67 -4z m-1755 -159 c47 -18 70 -40 62 -59
-10 -23 -105 -91 -122 -87 -46 9 -76 113 -43 153 15 18 39 17 103 -7z m1215
-368 c2 -14 8 -29 13 -34 15 -16 11 -23 -16 -28 -14 -3 -30 1 -36 8 -15 19
-46 18 -57 -1 -4 -9 -30 -19 -58 -23 -27 -5 -58 -13 -68 -19 -15 -8 -28 -6
-58 9 -40 21 -46 34 -25 61 11 16 16 16 53 3 25 -9 46 -11 55 -5 8 5 29 9 46
9 24 0 37 7 49 26 14 21 23 25 58 22 35 -3 41 -7 44 -28z m295 -121 c26 -14
39 -33 52 -79 9 -31 15 -35 47 -38 20 -2 42 -10 48 -18 7 -8 21 -14 32 -14 14
0 18 -5 14 -16 -3 -9 -9 -28 -13 -42 -6 -27 -40 -81 -57 -94 -20 -14 -17 -131
5 -200 26 -81 48 -91 118 -52 41 23 45 23 62 8 18 -16 19 -15 28 7 7 20 4 30
-18 54 -44 47 -68 97 -70 141 -1 23 -6 56 -11 74 -16 55 -5 77 43 83 28 4 47
1 57 -8 10 -9 20 -11 30 -5 34 22 103 7 192 -41 10 -5 23 -9 30 -9 6 0 29 -12
50 -26 31 -22 38 -33 38 -59 0 -19 -8 -39 -20 -50 -11 -10 -20 -24 -20 -30 0
-7 -7 -15 -15 -19 -8 -3 -15 -13 -15 -22 0 -10 -7 -26 -17 -36 -9 -10 -17 -36
-18 -58 -1 -21 -7 -45 -14 -53 -9 -12 -9 -16 1 -20 7 -2 0 -8 -17 -12 -51 -12
-75 -27 -75 -50 0 -22 -22 -60 -37 -61 -4 0 -26 -6 -49 -13 -37 -12 -49 -11
-114 10 -39 12 -74 28 -77 36 -7 19 -41 16 -52 -5 -5 -9 -33 -26 -61 -36 -46
-17 -59 -17 -108 -6 -30 7 -65 22 -77 34 l-22 22 -72 -28 c-74 -30 -89 -29
-125 8 -17 16 -23 114 -8 114 5 0 25 24 45 53 21 30 48 60 62 67 26 14 107 8
113 -8 1 -5 9 -18 17 -28 11 -16 16 -17 27 -6 19 19 15 98 -7 122 -18 19 -18
25 -5 83 17 74 17 126 1 186 -8 31 -9 52 -2 70 6 14 15 38 20 54 11 29 30 34
64 16z m-538 -457 c98 -34 163 -107 121 -137 -31 -23 -177 24 -209 67 -18 24
-18 30 -7 57 14 35 26 37 95 13z"/>
<path d="M2981 7371 c-59 -59 -70 -76 -81 -122 -19 -85 -20 -87 -40 -92 -26
-7 -27 -47 -2 -47 13 0 24 13 34 38 12 31 22 40 58 51 52 15 100 49 100 70 0
9 9 27 20 41 11 14 20 36 20 51 0 28 -21 79 -32 79 -5 0 -39 -31 -77 -69z"/>
<path d="M4827 7033 c-2 -4 -7 -21 -11 -38 -4 -16 -14 -38 -23 -47 -15 -17
-16 -13 18 -123 7 -23 6 -33 -6 -41 -8 -6 -15 -16 -15 -22 0 -5 -13 -15 -29
-20 -26 -9 -35 -7 -70 18 -34 25 -41 27 -51 14 -7 -7 -21 -14 -31 -14 -27 0
-24 -11 18 -54 21 -22 32 -40 27 -44 -21 -14 -25 -45 -7 -64 17 -19 17 -20 -2
-34 -10 -8 -27 -14 -36 -14 -22 0 -33 -16 -25 -36 5 -13 9 -13 31 2 15 10 34
14 49 10 20 -5 26 -1 35 26 14 39 14 38 -1 38 -7 0 -19 4 -26 9 -19 12 12 73
32 65 9 -4 21 6 31 26 13 25 20 30 38 25 12 -4 32 -18 43 -32 12 -14 27 -23
32 -19 14 9 62 -3 62 -15 0 -5 -8 -12 -17 -16 -10 -3 -26 -13 -35 -20 -21 -18
-38 -9 -38 20 0 12 -9 28 -20 34 -16 11 -21 10 -30 -6 -16 -31 -12 -59 10 -71
11 -6 20 -21 20 -33 l0 -21 -16 22 c-17 25 -34 21 -34 -7 0 -25 23 -44 37 -30
8 8 13 7 18 0 4 -7 15 1 29 21 12 19 36 38 56 44 23 8 36 19 38 33 2 11 11 22
20 22 9 1 24 2 32 3 19 1 26 34 10 50 -6 6 -23 11 -38 11 -18 0 -28 6 -30 19
-3 14 0 17 13 12 9 -3 25 -1 36 4 18 10 18 12 3 35 -9 14 -22 25 -30 25 -8 0
-11 6 -7 15 5 14 7 14 22 1 15 -14 20 -13 46 9 17 14 47 29 68 35 39 11 49 33
20 44 -11 5 -24 -2 -37 -19 -18 -21 -26 -24 -58 -19 -21 4 -38 10 -38 13 0 4
14 18 32 31 l31 23 -27 24 c-33 28 -62 30 -68 5 -3 -12 -13 -18 -26 -17 -34 2
-37 14 -7 25 l29 11 -25 23 c-26 26 -65 41 -72 29z"/>
<path d="M4583 6667 c-12 -15 -24 -23 -28 -18 -3 6 -18 8 -33 5 -19 -4 -33 0
-41 10 -19 22 -51 19 -85 -8 -38 -32 -27 -44 33 -38 43 4 53 1 74 -20 13 -13
26 -30 28 -36 5 -16 59 7 59 26 0 7 6 23 14 35 7 13 11 32 7 46 l-7 25 -21
-27z"/>
<path d="M5314 5901 c-17 -16 -62 -22 -67 -8 -3 9 -9 9 -25 0 -16 -10 -22 -10
-25 0 -3 9 -8 9 -16 1 -9 -8 -7 -23 7 -60 17 -43 24 -49 49 -50 35 0 56 -12
50 -27 -7 -20 12 -47 33 -47 16 0 20 7 20 35 0 26 9 45 36 75 29 32 33 41 21
46 -25 9 -62 0 -59 -15 4 -22 -8 -51 -23 -51 -23 0 -25 53 -2 77 19 22 21 42
1 24z"/>
<path d="M6255 6337 c-5 -19 -16 -27 -41 -31 -19 -4 -34 -13 -34 -20 0 -22 31
-28 51 -10 17 16 19 15 28 -9 9 -23 15 -26 39 -21 23 5 32 1 45 -20 18 -27 33
-32 57 -16 12 7 12 12 -4 29 -20 22 -14 41 14 41 25 0 33 15 16 29 -9 7 -17 8
-20 3 -3 -6 -32 -9 -63 -8 -54 2 -58 4 -58 26 0 32 -23 37 -30 7z"/>
<path d="M3430 5492 c0 -10 -4 -22 -9 -27 -4 -6 -11 -23 -15 -38 -6 -24 -4
-28 11 -24 60 17 83 18 83 3 0 -8 -9 -18 -21 -21 -26 -8 -20 -29 10 -33 13 -2
26 -13 28 -23 9 -32 36 -17 46 24 9 37 8 40 -25 67 -20 16 -41 43 -48 60 -14
35 -60 44 -60 12z"/>
<path d="M4394 8135 c-25 -44 -99 -105 -126 -105 -7 0 -28 -9 -46 -20 -31 -19
-35 -19 -67 -4 -44 21 -55 12 -55 -41 0 -35 5 -48 26 -64 32 -25 47 -17 69 37
15 35 31 38 49 9 7 -11 7 -26 -2 -50 -25 -70 -10 -97 42 -77 21 7 32 7 42 -1
35 -29 60 26 29 67 -19 25 -19 44 1 104 29 89 84 108 84 30 0 -35 4 -42 27
-51 15 -5 38 -9 52 -7 20 2 27 10 33 42 5 22 17 48 28 58 19 18 20 18 26 -6 6
-24 39 -44 52 -32 9 9 -58 67 -69 60 -6 -3 -16 -1 -23 5 -8 7 -23 7 -47 1 -51
-15 -54 -14 -68 35 -7 25 -17 48 -22 50 -4 3 -20 -15 -35 -40z"/>
<path d="M9575 4690 c-22 -11 -52 -29 -66 -41 -23 -18 -38 -21 -131 -20 -85 1
-119 -3 -179 -23 -45 -14 -111 -26 -171 -29 -94 -6 -98 -6 -128 20 -17 14 -38
43 -47 64 -8 22 -19 39 -23 39 -11 0 -47 -80 -60 -135 -6 -27 -13 -85 -15
-127 -2 -42 -9 -104 -15 -138 -6 -34 -8 -75 -5 -91 4 -16 33 -58 66 -94 32
-36 59 -74 59 -85 0 -10 -16 -55 -35 -99 -19 -43 -35 -86 -35 -95 0 -9 -16
-58 -36 -109 -20 -50 -40 -121 -45 -155 -8 -56 -7 -67 11 -92 24 -34 62 -52
159 -76 66 -17 76 -23 97 -56 13 -21 24 -52 24 -70 0 -42 40 -126 74 -158 22
-20 38 -25 81 -25 61 0 83 16 163 119 37 48 58 64 116 91 58 26 75 40 94 73
12 22 22 53 22 68 1 54 33 167 55 194 7 8 18 33 25 55 7 22 25 63 41 91 16 28
29 61 29 73 0 22 41 105 64 129 7 7 28 21 46 30 48 25 65 77 44 139 -15 44
-15 49 11 129 26 82 26 83 9 141 -45 156 -108 255 -171 272 -54 15 -82 13
-128 -9z"/>
<path d="M6896 2908 c-13 -29 -36 -63 -50 -75 -29 -25 -33 -41 -12 -49 8 -3
21 -25 31 -50 18 -49 17 -48 64 -34 25 7 40 6 61 -5 25 -13 29 -12 54 14 15
16 34 50 42 76 8 27 22 57 31 67 16 18 15 20 -13 49 -31 31 -43 34 -107 23
-33 -6 -39 -4 -44 15 -9 36 -33 23 -57 -31z"/>
<path d="M5350 2111 c-34 -6 -35 -7 -35 -51 0 -25 -6 -58 -13 -73 -14 -33 -16
-77 -3 -77 5 0 15 -15 22 -32 l13 -33 3 30 c2 17 8 49 14 72 10 38 13 41 35
33 29 -11 49 6 59 51 6 25 2 36 -21 60 -15 16 -30 28 -33 28 -3 -1 -22 -4 -41
-8z"/>
</g>
</svg>
